<svg version="1.1" id="Layer_1" xmlns="http://www.w3.org/2000/svg" xmlns:xlink="http://www.w3.org/1999/xlink" x="0px" y="0px"
	 width="100%" viewBox="0 0 800 800" enable-background="new 0 0 800 800" xml:space="preserve">
<path fill="#000000" opacity="1.000000" stroke="none" 
	d="
M366.000000,801.000000 
	C244.000000,801.000000 122.500000,801.000000 1.000000,801.000000 
	C1.000000,534.333313 1.000000,267.666656 1.000000,1.000000 
	C267.666656,1.000000 534.333313,1.000000 801.000000,1.000000 
	C801.000000,267.666656 801.000000,534.333313 801.000000,801.000000 
	C656.166687,801.000000 511.333344,801.000000 366.000000,801.000000 
M479.616028,406.037537 
	C477.561188,408.041351 475.448608,409.989777 473.463104,412.060120 
	C468.727966,416.997559 464.145660,422.084595 459.331329,426.942474 
	C452.298187,434.039246 444.883392,440.771545 438.076691,448.074341 
	C433.350250,453.145294 433.716949,461.820038 438.064392,465.592407 
	C441.737183,468.779449 450.452362,467.883972 455.082947,465.033081 
	C462.282684,460.600433 469.856689,456.717438 477.499664,453.079590 
	C484.839661,449.585999 492.478271,446.721985 499.968536,443.541046 
	C505.817017,441.057312 511.593781,438.398865 517.486694,436.027496 
	C522.783813,433.895874 528.227478,432.131104 533.549988,430.059479 
	C543.761169,426.085052 553.869995,421.839447 564.144958,418.040894 
	C569.695801,415.988831 575.505188,414.638275 581.189392,412.942505 
	C581.951965,412.715057 582.665833,412.322754 583.399475,412.000397 
	C588.698425,409.671753 593.957336,407.246155 599.307312,405.041290 
	C603.721436,403.222046 608.503906,402.143036 612.658691,399.882385 
	C619.744324,396.027100 626.522156,391.590576 633.321716,387.230377 
	C638.492126,383.914856 643.493347,380.335754 648.574036,376.880096 
	C653.688965,373.401123 658.961853,370.131195 663.884888,366.399445 
	C669.026184,362.502197 673.763306,358.076813 678.802246,354.038452 
	C685.974792,348.290161 693.252319,342.672333 700.503357,337.022461 
	C704.408997,333.979309 708.517456,331.172150 712.225647,327.907776 
	C714.973694,325.488647 717.903442,322.856110 719.542419,319.691925 
	C722.228760,314.505676 719.604553,307.697998 713.997070,305.766052 
	C709.897827,304.353729 706.877502,304.150970 702.640930,305.742279 
	C694.926331,308.639984 686.629150,309.954071 678.637634,312.156158 
	C670.923645,314.281860 663.358215,316.976807 655.596436,318.889465 
	C649.645813,320.355774 643.475220,320.908478 637.435181,322.042358 
	C635.026062,322.494659 632.705139,323.416931 629.893982,324.260315 
	C633.354431,318.743225 636.303955,314.113647 639.179688,309.438690 
	C643.481384,302.445709 648.001526,295.568054 651.923401,288.366119 
	C655.488098,281.820038 658.277100,274.856415 661.595886,268.170074 
	C664.598206,262.121399 668.222778,256.357666 670.890625,250.173920 
	C673.351196,244.470657 674.876160,238.366364 676.887939,232.464188 
	C677.203491,231.538605 678.257690,230.797760 678.389038,229.887604 
	C679.094116,225.000412 679.615234,220.086685 680.199951,215.182114 
	C679.632568,215.116760 679.065186,215.051407 678.497803,214.986038 
	C678.209900,216.476395 677.921936,217.966751 677.659729,219.324326 
	C674.907837,216.133789 675.805420,212.538895 675.797424,208.904205 
	C675.791870,206.355026 671.020386,202.049988 667.791809,203.076691 
	C666.816650,203.386826 666.125671,204.590759 665.304565,205.385284 
	C662.440247,201.467072 658.929688,206.186035 658.599304,206.541672 
	C653.740784,211.772232 649.275879,217.402359 645.066406,223.191376 
	C641.479797,228.123962 638.421570,233.437210 634.981689,238.481140 
	C631.406677,243.723083 627.766296,248.928619 623.946594,253.993271 
	C620.322144,258.798950 616.529785,263.487854 612.627075,268.071259 
	C608.007812,273.496124 603.105774,278.680115 598.484558,284.103302 
	C593.934021,289.443573 589.670288,295.028564 585.105042,300.355652 
	C582.782532,303.065857 580.015686,305.389923 577.552368,307.985962 
	C572.972534,312.812622 568.569824,317.811157 563.900269,322.547791 
	C559.987427,326.516846 555.695618,330.111176 551.760681,334.059875 
	C547.137390,338.699341 542.846130,343.672211 538.177856,348.263580 
	C532.517029,353.831116 526.448975,358.988373 520.853271,364.617554 
	C513.249634,372.266663 505.991455,380.257812 498.462738,387.983032 
	C492.530182,394.070374 486.412598,399.977417 479.616028,406.037537 
M264.970093,418.459778 
	C270.730927,420.864532 276.433472,423.422729 282.266388,425.637695 
	C290.849426,428.897034 299.534912,431.886261 308.141205,435.086182 
	C308.726440,435.303741 308.975494,436.350769 309.446991,436.960968 
	C312.839233,441.351013 315.981903,445.972809 319.722717,450.044312 
	C324.000244,454.700012 332.625427,453.051575 336.069824,448.447571 
	C338.871765,444.702393 340.417633,441.283569 337.167786,436.530640 
	C334.056915,431.980957 332.308258,426.514069 329.807037,421.527466 
	C328.520172,418.962006 327.097534,416.416138 325.387451,414.121277 
	C321.378143,408.740845 316.971283,403.650909 313.072357,398.195404 
	C308.346283,391.582520 304.054657,384.660919 299.431030,377.972473 
	C295.288116,371.979370 291.020569,366.068817 286.677856,360.218475 
	C282.356567,354.396912 277.861145,348.704834 273.466675,342.937225 
	C271.577209,340.457367 269.884003,337.816315 267.870514,335.444702 
	C259.899963,326.056427 251.817368,316.763336 243.818039,307.399323 
	C239.460815,302.298798 235.406281,296.920837 230.817734,292.041840 
	C225.697464,286.597412 220.171432,281.529419 214.738510,276.385773 
	C209.618332,271.538208 204.518433,266.655060 199.169159,262.067963 
	C194.615936,258.163483 189.223785,255.135071 185.108322,250.849472 
	C180.474808,246.024384 174.950943,245.167618 169.119186,245.667526 
	C167.290619,245.824295 164.348465,248.797150 164.317352,250.524261 
	C164.266830,253.329559 166.174515,256.179047 167.310226,258.987793 
	C167.494095,259.442535 168.326096,259.911865 168.239929,260.157227 
	C167.118286,263.350830 167.264145,266.348175 168.944153,269.368286 
	C169.864410,271.022614 170.439499,272.893860 170.998169,274.719940 
	C173.144012,281.733795 174.858917,288.904907 177.436371,295.753235 
	C179.515076,301.276459 182.629990,306.406860 185.218735,311.743774 
	C185.654831,312.642761 185.753647,313.705383 186.161041,315.284515 
	C184.547104,314.831390 183.612930,314.677765 182.769043,314.314423 
	C177.461807,312.029480 172.278885,309.401794 166.843246,307.488678 
	C163.375656,306.268280 159.558075,305.982208 155.871887,305.456177 
	C149.613785,304.563080 143.347244,303.255341 137.063080,303.122284 
	C125.900185,302.885925 121.227272,312.654144 126.038017,319.653168 
	C127.939003,322.418854 130.605347,324.676575 133.021622,327.066040 
	C137.438995,331.434357 141.656082,336.063324 146.449448,339.980621 
	C155.125244,347.070648 164.152344,353.731689 173.053207,360.545166 
	C179.936401,365.814148 186.850815,371.042358 193.752991,376.289948 
	C189.141647,384.046692 191.159317,388.401398 197.642670,392.750641 
	C204.607895,397.423126 212.558762,400.862152 220.452637,403.855469 
	C230.596695,407.702057 241.115646,410.558258 251.466309,413.862396 
	C255.733414,415.224548 259.982849,416.642059 264.970093,418.459778 
M617.649780,537.084351 
	C624.681946,533.739502 631.698181,530.360657 638.752625,527.063538 
	C642.517029,525.304077 646.206787,523.107239 650.181396,522.142273 
	C655.832336,520.770264 660.280396,524.443787 664.705261,527.280396 
	C666.692078,528.554077 668.322754,530.383423 670.115051,531.960571 
	C672.763733,532.973572 676.098450,533.037842 679.425903,532.912170 
	C680.001831,532.890442 680.571777,532.091064 681.103149,531.605652 
	C686.987122,526.230469 687.048706,515.043518 680.652283,510.286438 
	C674.997375,506.080841 669.080139,500.959930 662.560242,499.538147 
	C655.886841,498.082916 648.192139,497.378510 641.089111,500.897034 
	C632.825806,504.990326 624.172607,508.290039 615.755981,512.083679 
	C611.891602,513.825500 608.204468,515.957336 604.405640,517.849365 
	C601.820740,519.136841 599.181335,520.315186 596.351135,521.643311 
	C595.924622,519.205566 595.392456,516.553406 595.005127,513.880249 
	C593.540039,503.768921 585.830566,496.761780 576.265137,497.905731 
	C570.393005,498.608002 565.241943,499.908142 560.259888,503.635162 
	C553.585815,508.627991 546.040344,512.482971 538.748413,516.613525 
	C533.629822,519.513062 528.309937,522.057129 522.855652,524.875854 
	C521.469299,520.877563 520.435303,517.895630 519.702271,515.781494 
	C515.364258,515.480286 511.806030,515.233154 508.235229,514.985168 
	C508.063538,518.813660 508.445709,522.258362 504.539459,524.134033 
	C503.688843,524.542480 503.157013,526.296814 503.068970,527.475464 
	C502.858673,530.291626 502.818420,533.148621 503.042480,535.962646 
	C503.383270,540.242432 504.775482,543.694519 508.695007,546.521545 
	C514.587952,550.771912 521.218933,549.638428 526.678101,548.223083 
	C534.670715,546.150879 542.107422,541.636719 549.495728,537.636230 
	C554.379517,534.991882 558.690674,531.309814 563.399292,528.314026 
	C565.970032,526.678406 568.834534,525.504517 570.845337,524.487305 
	C571.613037,528.084290 571.440308,532.011902 573.229553,534.563904 
	C576.009521,538.528809 579.603394,543.491028 583.773254,544.615479 
	C595.642334,547.816162 606.843018,544.137878 617.649780,537.084351 
M381.840240,576.024475 
	C380.305664,575.228516 377.968231,574.822144 377.362976,573.575134 
	C372.333954,563.213013 362.977051,560.791382 352.866425,560.063416 
	C341.391632,559.237244 332.241394,565.033997 323.862488,571.829041 
	C319.502319,575.364990 315.909576,579.819275 312.328125,584.335144 
	C307.949005,589.856750 304.734985,595.638000 302.110474,601.912292 
	C300.673645,605.347229 304.604980,610.455627 308.264984,611.061218 
	C312.592072,611.777222 316.210754,611.618530 319.647339,608.094849 
	C323.351196,604.297058 328.644196,601.885925 331.812744,597.768494 
	C336.294464,591.944641 341.854370,588.501587 348.405609,585.794373 
	C352.554749,584.079773 352.785339,585.925171 353.062439,589.168335 
	C353.474701,593.993530 353.791473,598.929626 355.106903,603.545593 
	C356.384705,608.029419 359.723419,610.346375 364.868561,611.179810 
	C375.708557,612.935608 383.323151,606.430847 391.754059,601.969360 
	C397.088745,599.146301 402.141296,595.790222 408.475983,591.977661 
	C410.471344,601.277588 411.634125,609.721741 414.156799,617.737976 
	C417.839508,629.440308 426.387177,633.014221 435.179077,625.779602 
	C442.301025,619.919128 443.073212,610.817261 441.496460,602.352051 
	C440.198608,595.384155 438.167755,588.475281 435.170410,581.805237 
	C429.214630,568.551880 416.329498,561.588074 402.528656,566.182007 
	C395.574707,568.496826 389.238434,572.667114 381.840240,576.024475 
M220.415756,525.076294 
	C225.489532,529.324524 231.948303,530.069580 237.971405,530.739990 
	C243.524780,531.358154 249.234055,531.529846 255.088654,529.265442 
	C263.479553,526.020020 271.826813,528.086975 279.725342,532.781372 
	C284.063904,535.359924 289.886475,534.967285 293.252289,531.476807 
	C295.495544,529.150330 296.660034,523.562683 295.472046,520.554382 
	C291.505127,510.509338 281.823212,506.731445 272.411835,504.316071 
	C266.933868,502.910217 260.625031,504.412140 254.741928,505.069946 
	C252.242737,505.349426 249.824539,506.703857 247.463196,507.776031 
	C244.525253,509.109955 237.590179,506.475616 234.975052,502.804626 
	C231.953369,498.562775 229.126297,494.175415 225.970490,490.037537 
	C221.327774,483.950104 215.932007,478.537811 207.438232,480.140320 
	C202.642212,481.045166 198.103516,483.339508 193.469437,485.063202 
	C191.811356,485.679932 189.856155,486.081238 188.646759,487.225708 
	C181.102737,494.364532 171.559143,497.717438 162.845535,501.773224 
	C161.577438,495.756989 160.296768,490.061798 159.192764,484.332520 
	C158.158386,478.964691 160.306732,473.091003 156.967041,467.099060 
	C156.181595,468.973541 155.827408,469.818817 155.079834,471.602875 
	C153.560226,467.888367 152.447571,465.168610 151.343109,462.468872 
	C148.518204,464.173401 145.785767,467.061432 142.831879,467.309204 
	C138.579834,467.665863 138.942932,469.759552 138.979034,472.526886 
	C139.037674,477.022156 138.890869,481.520264 138.958359,486.015228 
	C139.073318,493.670868 139.212860,501.327942 139.508926,508.977936 
	C139.588623,511.037292 139.728622,513.417297 140.771240,515.059509 
	C144.894363,521.553711 150.429642,525.150513 158.747726,525.222595 
	C166.581512,525.290527 173.605865,523.000000 180.700821,520.603821 
	C184.310471,519.384705 187.704300,517.389893 191.005402,515.425903 
	C195.980835,512.465759 200.789536,509.225342 205.661606,506.108887 
	C210.784897,512.998413 215.225754,518.970276 220.415756,525.076294 
M341.000000,296.525635 
	C340.324615,290.725922 339.761566,284.910431 338.949951,279.129852 
	C337.374023,267.905396 335.616302,256.706573 334.015411,245.485474 
	C332.937164,237.928009 332.345215,230.280334 330.832275,222.815598 
	C330.200714,219.699478 327.743622,216.953369 326.141357,214.083389 
	C326.299835,214.001617 327.225677,213.523880 328.814209,212.704178 
	C325.549469,211.160721 321.659546,214.637695 320.246979,210.122696 
	C320.223663,210.048050 318.368286,210.161606 318.131561,210.599869 
	C316.314270,213.964325 313.882874,217.274261 313.175354,220.900299 
	C311.901123,227.430832 312.605316,233.935760 313.594086,240.731644 
	C315.858063,256.291687 315.944153,272.164520 317.022430,287.902954 
	C317.568695,295.876617 318.361481,303.833221 319.018341,311.799591 
	C319.382172,316.212280 319.483795,320.657776 320.076416,325.038025 
	C321.247101,333.691132 322.651642,342.313171 324.006073,350.940735 
	C325.784821,362.270905 327.222229,373.674927 329.568817,384.887604 
	C330.822235,390.876709 333.850586,396.474731 335.750214,402.355133 
	C337.033661,406.328156 339.906647,408.777344 343.071594,410.884827 
	C345.042969,412.197479 352.311768,408.864777 353.863129,406.380768 
	C358.133453,399.543243 357.023956,391.625061 354.251129,385.602081 
	C351.213348,379.003448 350.710205,371.970886 349.604034,365.549957 
	C347.719421,354.610443 344.260193,343.541046 345.818085,332.028687 
	C346.091858,330.005432 343.355591,327.729065 343.125061,325.456421 
	C342.181610,316.155426 341.670380,306.810547 341.000000,296.525635 
M467.003601,324.499329 
	C467.329468,323.591156 467.773987,322.706970 467.962952,321.771149 
	C469.996490,311.700012 471.940430,301.610626 474.008209,291.546631 
	C475.950195,282.094940 478.047577,272.675201 480.002289,263.226044 
	C480.787994,259.428101 480.629089,255.238358 482.222107,251.848145 
	C484.845306,246.265579 484.774017,240.479309 485.206635,234.675507 
	C485.386078,232.268188 485.236389,229.836334 485.236389,227.178741 
	C484.217255,227.020599 482.682343,226.782425 480.587952,226.457428 
	C481.424896,227.446564 481.936493,228.051193 482.448090,228.655823 
	C482.303528,228.863037 482.158966,229.070251 482.014404,229.277481 
	C479.964111,227.729568 477.913788,226.181671 475.551361,224.398132 
	C475.104614,227.456970 474.787048,229.631363 474.469482,231.805771 
	C474.083008,231.729248 473.696533,231.652725 473.310059,231.576218 
	C473.003052,230.348160 472.696045,229.120102 472.434326,228.073273 
	C470.696381,230.059036 468.776550,231.371887 468.124115,233.149796 
	C465.217987,241.069443 462.454102,249.056808 460.056061,257.143433 
	C457.144928,266.960236 454.568268,276.879578 452.023499,286.799866 
	C451.066345,290.531067 450.797974,294.436951 449.876892,298.179840 
	C447.694336,307.048828 445.172485,315.835327 443.050781,324.717987 
	C441.483124,331.281219 440.423584,337.964172 438.962830,344.555054 
	C437.783173,349.877655 436.091156,355.094696 435.075958,360.443878 
	C433.514923,368.668854 432.394928,376.976562 430.982910,385.231201 
	C429.760254,392.378937 427.986359,399.461884 427.278961,406.654388 
	C426.978455,409.709747 425.152771,414.103027 429.666412,416.047089 
	C431.445465,416.813354 433.678314,416.815308 435.683136,416.719299 
	C445.571411,416.245636 450.560699,404.627869 451.989471,395.512970 
	C452.291870,393.583740 452.219604,391.567200 452.732910,389.704681 
	C454.731232,382.454010 457.750519,375.366577 458.763214,367.994904 
	C459.821808,360.289093 459.641876,352.619141 462.756866,345.073303 
	C465.278320,338.965363 465.666016,331.976562 467.003601,324.499329 
z"/>
<path fill="#FFFFFF" opacity="1.000000" stroke="none" 
	d="
M479.996613,406.001038 
	C486.412598,399.977417 492.530182,394.070374 498.462738,387.983032 
	C505.991455,380.257812 513.249634,372.266663 520.853271,364.617554 
	C526.448975,358.988373 532.517029,353.831116 538.177856,348.263580 
	C542.846130,343.672211 547.137390,338.699341 551.760681,334.059875 
	C555.695618,330.111176 559.987427,326.516846 563.900269,322.547791 
	C568.569824,317.811157 572.972534,312.812622 577.552368,307.985962 
	C580.015686,305.389923 582.782532,303.065857 585.105042,300.355652 
	C589.670288,295.028564 593.934021,289.443573 598.484558,284.103302 
	C603.105774,278.680115 608.007812,273.496124 612.627075,268.071259 
	C616.529785,263.487854 620.322144,258.798950 623.946594,253.993271 
	C627.766296,248.928619 631.406677,243.723083 634.981689,238.481140 
	C638.421570,233.437210 641.479797,228.123962 645.066406,223.191376 
	C649.275879,217.402359 653.740784,211.772232 658.599304,206.541672 
	C658.929688,206.186035 662.440247,201.467072 665.304565,205.385284 
	C666.125671,204.590759 666.816650,203.386826 667.791809,203.076691 
	C671.020386,202.049988 675.791870,206.355026 675.797424,208.904205 
	C675.805420,212.538895 674.907837,216.133789 677.659729,219.324326 
	C677.921936,217.966751 678.209900,216.476395 678.497803,214.986038 
	C679.065186,215.051407 679.632568,215.116760 680.199951,215.182114 
	C679.615234,220.086685 679.094116,225.000412 678.389038,229.887604 
	C678.257690,230.797760 677.203491,231.538605 676.887939,232.464188 
	C674.876160,238.366364 673.351196,244.470657 670.890625,250.173920 
	C668.222778,256.357666 664.598206,262.121399 661.595886,268.170074 
	C658.277100,274.856415 655.488098,281.820038 651.923401,288.366119 
	C648.001526,295.568054 643.481384,302.445709 639.179688,309.438690 
	C636.303955,314.113647 633.354431,318.743225 629.893982,324.260315 
	C632.705139,323.416931 635.026062,322.494659 637.435181,322.042358 
	C643.475220,320.908478 649.645813,320.355774 655.596436,318.889465 
	C663.358215,316.976807 670.923645,314.281860 678.637634,312.156158 
	C686.629150,309.954071 694.926331,308.639984 702.640930,305.742279 
	C706.877502,304.150970 709.897827,304.353729 713.997070,305.766052 
	C719.604553,307.697998 722.228760,314.505676 719.542419,319.691925 
	C717.903442,322.856110 714.973694,325.488647 712.225647,327.907776 
	C708.517456,331.172150 704.408997,333.979309 700.503357,337.022461 
	C693.252319,342.672333 685.974792,348.290161 678.802246,354.038452 
	C673.763306,358.076813 669.026184,362.502197 663.884888,366.399445 
	C658.961853,370.131195 653.688965,373.401123 648.574036,376.880096 
	C643.493347,380.335754 638.492126,383.914856 633.321716,387.230377 
	C626.522156,391.590576 619.744324,396.027100 612.658691,399.882385 
	C608.503906,402.143036 603.721436,403.222046 599.307312,405.041290 
	C593.957336,407.246155 588.698425,409.671753 583.399475,412.000397 
	C582.665833,412.322754 581.951965,412.715057 581.189392,412.942505 
	C575.505188,414.638275 569.695801,415.988831 564.144958,418.040894 
	C553.869995,421.839447 543.761169,426.085052 533.549988,430.059479 
	C528.227478,432.131104 522.783813,433.895874 517.486694,436.027496 
	C511.593781,438.398865 505.817017,441.057312 499.968536,443.541046 
	C492.478271,446.721985 484.839661,449.585999 477.499664,453.079590 
	C469.856689,456.717438 462.282684,460.600433 455.082947,465.033081 
	C450.452362,467.883972 441.737183,468.779449 438.064392,465.592407 
	C433.716949,461.820038 433.350250,453.145294 438.076691,448.074341 
	C444.883392,440.771545 452.298187,434.039246 459.331329,426.942474 
	C464.145660,422.084595 468.727966,416.997559 473.463104,412.060120 
	C475.448608,409.989777 477.561188,408.041351 479.996613,406.001038 
M618.167297,297.994659 
	C617.401306,298.205292 616.408081,298.179840 615.905334,298.663879 
	C611.884766,302.534668 608.657410,306.974701 605.380371,311.530029 
	C600.397522,318.456512 593.526245,324.026947 587.439087,330.155396 
	C584.087158,333.530090 580.699890,336.869751 577.325989,340.222656 
	C569.761536,347.740143 562.181335,355.241821 554.634460,362.776917 
	C548.225769,369.175568 541.814636,375.572754 535.485535,382.049713 
	C532.709595,384.890503 530.300354,388.102753 527.422241,390.827026 
	C524.572571,393.524414 521.249756,395.714569 518.297424,398.312378 
	C511.148346,404.602997 504.094086,411.001404 497.001648,417.356384 
	C497.508453,417.977814 498.015228,418.599274 498.522003,419.220734 
	C499.874542,418.847656 501.293640,418.627991 502.567963,418.074829 
	C507.864227,415.775787 513.040222,413.182587 518.403503,411.058899 
	C526.439270,407.877014 534.585022,404.970490 542.703003,401.998993 
	C552.593201,398.378723 562.497131,394.795715 572.411011,391.240814 
	C573.907288,390.704315 575.565186,390.586426 577.019836,389.971039 
	C586.320862,386.036102 595.380432,381.391296 604.936707,378.248871 
	C611.078308,376.229309 616.680603,373.970276 621.664795,369.825684 
	C627.300659,365.139282 633.266357,360.849274 639.095398,356.395691 
	C641.031250,354.916565 642.945679,353.403992 644.943481,352.012146 
	C650.676941,348.017639 656.447937,344.077118 662.204224,340.115387 
	C661.918030,339.588135 661.631836,339.060883 661.345642,338.533630 
	C655.236877,339.851746 649.139648,341.226868 643.014893,342.465942 
	C639.525330,343.171906 635.281555,342.629639 632.630554,344.462280 
	C627.757141,347.831390 621.740540,347.094116 616.715271,350.571747 
	C613.236206,352.979370 607.161194,352.048950 602.271423,351.879486 
	C598.056763,351.733429 595.354980,348.866821 595.074951,344.601288 
	C594.807190,340.523926 595.267822,337.120514 598.480774,333.265198 
	C603.214539,327.585114 605.468140,319.907104 609.316772,313.398529 
	C612.380554,308.217316 616.250244,303.512573 620.321594,298.108307 
	C621.312195,296.092072 622.302795,294.075867 623.293396,292.059631 
	C622.719788,291.800568 622.146118,291.541473 621.572449,291.282410 
	C620.689087,293.495941 619.805725,295.709473 618.167297,297.994659 
M624.299011,291.020630 
	C624.352966,290.453369 624.406921,289.886108 624.460876,289.318848 
	C624.173340,289.748749 623.885803,290.178650 624.299011,291.020630 
z"/>
<path fill="#FFFFFF" opacity="1.000000" stroke="none" 
	d="
M264.605225,418.247070 
	C259.982849,416.642059 255.733414,415.224548 251.466309,413.862396 
	C241.115646,410.558258 230.596695,407.702057 220.452637,403.855469 
	C212.558762,400.862152 204.607895,397.423126 197.642670,392.750641 
	C191.159317,388.401398 189.141647,384.046692 193.752991,376.289948 
	C186.850815,371.042358 179.936401,365.814148 173.053207,360.545166 
	C164.152344,353.731689 155.125244,347.070648 146.449448,339.980621 
	C141.656082,336.063324 137.438995,331.434357 133.021622,327.066040 
	C130.605347,324.676575 127.939003,322.418854 126.038017,319.653168 
	C121.227272,312.654144 125.900185,302.885925 137.063080,303.122284 
	C143.347244,303.255341 149.613785,304.563080 155.871887,305.456177 
	C159.558075,305.982208 163.375656,306.268280 166.843246,307.488678 
	C172.278885,309.401794 177.461807,312.029480 182.769043,314.314423 
	C183.612930,314.677765 184.547104,314.831390 186.161041,315.284515 
	C185.753647,313.705383 185.654831,312.642761 185.218735,311.743774 
	C182.629990,306.406860 179.515076,301.276459 177.436371,295.753235 
	C174.858917,288.904907 173.144012,281.733795 170.998169,274.719940 
	C170.439499,272.893860 169.864410,271.022614 168.944153,269.368286 
	C167.264145,266.348175 167.118286,263.350830 168.239929,260.157227 
	C168.326096,259.911865 167.494095,259.442535 167.310226,258.987793 
	C166.174515,256.179047 164.266830,253.329559 164.317352,250.524261 
	C164.348465,248.797150 167.290619,245.824295 169.119186,245.667526 
	C174.950943,245.167618 180.474808,246.024384 185.108322,250.849472 
	C189.223785,255.135071 194.615936,258.163483 199.169159,262.067963 
	C204.518433,266.655060 209.618332,271.538208 214.738510,276.385773 
	C220.171432,281.529419 225.697464,286.597412 230.817734,292.041840 
	C235.406281,296.920837 239.460815,302.298798 243.818039,307.399323 
	C251.817368,316.763336 259.899963,326.056427 267.870514,335.444702 
	C269.884003,337.816315 271.577209,340.457367 273.466675,342.937225 
	C277.861145,348.704834 282.356567,354.396912 286.677856,360.218475 
	C291.020569,366.068817 295.288116,371.979370 299.431030,377.972473 
	C304.054657,384.660919 308.346283,391.582520 313.072357,398.195404 
	C316.971283,403.650909 321.378143,408.740845 325.387451,414.121277 
	C327.097534,416.416138 328.520172,418.962006 329.807037,421.527466 
	C332.308258,426.514069 334.056915,431.980957 337.167786,436.530640 
	C340.417633,441.283569 338.871765,444.702393 336.069824,448.447571 
	C332.625427,453.051575 324.000244,454.700012 319.722717,450.044312 
	C315.981903,445.972809 312.839233,441.351013 309.446991,436.960968 
	C308.975494,436.350769 308.726440,435.303741 308.141205,435.086182 
	C299.534912,431.886261 290.849426,428.897034 282.266388,425.637695 
	C276.433472,423.422729 270.730927,420.864532 264.605225,418.247070 
M180.996384,338.737732 
	C181.743607,339.357391 182.490829,339.977051 183.714569,341.139587 
	C185.951569,342.776306 188.238724,344.349304 190.415161,346.062958 
	C194.998123,349.671509 199.187225,353.923004 204.159714,356.856873 
	C209.931107,360.262177 212.942383,367.561584 220.531219,368.264679 
	C220.772675,368.287048 220.871841,369.109924 221.161896,369.454926 
	C224.777206,373.755188 228.263321,378.179535 232.111450,382.262085 
	C234.075317,384.345642 236.465332,386.403259 239.073181,387.426758 
	C244.720642,389.643311 250.698669,391.002777 256.414490,393.064789 
	C260.753723,394.630157 264.829102,396.916901 269.144348,398.561157 
	C274.473145,400.591553 279.928772,402.289093 285.710785,404.260437 
	C284.542084,402.276367 283.764069,400.713715 282.768372,399.304932 
	C276.919983,391.030273 271.056763,382.765533 265.127045,374.549042 
	C260.627289,368.313965 256.136932,362.065948 251.428619,355.989319 
	C247.015305,350.293396 242.167084,344.932953 237.789261,339.211395 
	C232.167587,331.864197 226.964249,324.195740 221.305161,316.878754 
	C218.271591,312.956482 213.646225,309.963135 211.602325,305.664673 
	C209.654373,301.567993 207.117188,300.319519 203.200668,299.587311 
	C204.545380,302.577698 205.778244,305.336639 207.025223,308.089172 
	C210.707870,316.218140 213.691147,324.783295 218.366104,332.295288 
	C220.873047,336.323547 220.594284,340.241974 219.570511,343.204742 
	C217.066040,350.452789 205.296417,351.882843 198.905029,347.249603 
	C194.504623,344.059662 189.057159,342.314087 184.003616,339.263062 
	C183.257507,338.644501 182.511398,338.025970 181.303192,336.874542 
	C179.469116,335.971405 177.635040,335.068268 175.800964,334.165131 
	C175.561127,334.715759 175.321274,335.266418 175.081436,335.817078 
	C177.028366,336.570343 178.975281,337.323639 180.996384,338.737732 
M202.081055,297.541656 
	C202.447876,297.605499 202.814697,297.669312 203.181519,297.733124 
	C203.120285,297.356110 203.126190,296.943542 202.956909,296.623779 
	C202.906128,296.527832 202.366837,296.690491 202.081055,297.541656 
M204.919464,298.516205 
	C204.693756,298.436615 204.468048,298.357025 204.242325,298.277466 
	C204.312454,298.500244 204.382568,298.722992 204.919464,298.516205 
z"/>
<path fill="#FF5E5E" opacity="1.000000" stroke="none" 
	d="
M617.369141,537.357300 
	C606.843018,544.137878 595.642334,547.816162 583.773254,544.615479 
	C579.603394,543.491028 576.009521,538.528809 573.229553,534.563904 
	C571.440308,532.011902 571.613037,528.084290 570.845337,524.487305 
	C568.834534,525.504517 565.970032,526.678406 563.399292,528.314026 
	C558.690674,531.309814 554.379517,534.991882 549.495728,537.636230 
	C542.107422,541.636719 534.670715,546.150879 526.678101,548.223083 
	C521.218933,549.638428 514.587952,550.771912 508.695007,546.521545 
	C504.775482,543.694519 503.383270,540.242432 503.042480,535.962646 
	C502.818420,533.148621 502.858673,530.291626 503.068970,527.475464 
	C503.157013,526.296814 503.688843,524.542480 504.539459,524.134033 
	C508.445709,522.258362 508.063538,518.813660 508.235229,514.985168 
	C511.806030,515.233154 515.364258,515.480286 519.702271,515.781494 
	C520.435303,517.895630 521.469299,520.877563 522.855652,524.875854 
	C528.309937,522.057129 533.629822,519.513062 538.748413,516.613525 
	C546.040344,512.482971 553.585815,508.627991 560.259888,503.635162 
	C565.241943,499.908142 570.393005,498.608002 576.265137,497.905731 
	C585.830566,496.761780 593.540039,503.768921 595.005127,513.880249 
	C595.392456,516.553406 595.924622,519.205566 596.351135,521.643311 
	C599.181335,520.315186 601.820740,519.136841 604.405640,517.849365 
	C608.204468,515.957336 611.891602,513.825500 615.755981,512.083679 
	C624.172607,508.290039 632.825806,504.990326 641.089111,500.897034 
	C648.192139,497.378510 655.886841,498.082916 662.560242,499.538147 
	C669.080139,500.959930 674.997375,506.080841 680.652283,510.286438 
	C687.048706,515.043518 686.987122,526.230469 681.103149,531.605652 
	C680.571777,532.091064 680.001831,532.890442 679.425903,532.912170 
	C676.098450,533.037842 672.763733,532.973572 670.115051,531.960571 
	C668.322754,530.383423 666.692078,528.554077 664.705261,527.280396 
	C660.280396,524.443787 655.832336,520.770264 650.181396,522.142273 
	C646.206787,523.107239 642.517029,525.304077 638.752625,527.063538 
	C631.698181,530.360657 624.681946,533.739502 617.369141,537.357300 
z"/>
<path fill="#FFFFFF" opacity="1.000000" stroke="none" 
	d="
M382.231567,576.011475 
	C389.238434,572.667114 395.574707,568.496826 402.528656,566.182007 
	C416.329498,561.588074 429.214630,568.551880 435.170410,581.805237 
	C438.167755,588.475281 440.198608,595.384155 441.496460,602.352051 
	C443.073212,610.817261 442.301025,619.919128 435.179077,625.779602 
	C426.387177,633.014221 417.839508,629.440308 414.156799,617.737976 
	C411.634125,609.721741 410.471344,601.277588 408.475983,591.977661 
	C402.141296,595.790222 397.088745,599.146301 391.754059,601.969360 
	C383.323151,606.430847 375.708557,612.935608 364.868561,611.179810 
	C359.723419,610.346375 356.384705,608.029419 355.106903,603.545593 
	C353.791473,598.929626 353.474701,593.993530 353.062439,589.168335 
	C352.785339,585.925171 352.554749,584.079773 348.405609,585.794373 
	C341.854370,588.501587 336.294464,591.944641 331.812744,597.768494 
	C328.644196,601.885925 323.351196,604.297058 319.647339,608.094849 
	C316.210754,611.618530 312.592072,611.777222 308.264984,611.061218 
	C304.604980,610.455627 300.673645,605.347229 302.110474,601.912292 
	C304.734985,595.638000 307.949005,589.856750 312.328125,584.335144 
	C315.909576,579.819275 319.502319,575.364990 323.862488,571.829041 
	C332.241394,565.033997 341.391632,559.237244 352.866425,560.063416 
	C362.977051,560.791382 372.333954,563.213013 377.362976,573.575134 
	C377.968231,574.822144 380.305664,575.228516 382.231567,576.011475 
z"/>
<path fill="#FF5E5E" opacity="1.000000" stroke="none" 
	d="
M220.041199,525.009216 
	C215.225754,518.970276 210.784897,512.998413 205.661606,506.108887 
	C200.789536,509.225342 195.980835,512.465759 191.005402,515.425903 
	C187.704300,517.389893 184.310471,519.384705 180.700821,520.603821 
	C173.605865,523.000000 166.581512,525.290527 158.747726,525.222595 
	C150.429642,525.150513 144.894363,521.553711 140.771240,515.059509 
	C139.728622,513.417297 139.588623,511.037292 139.508926,508.977936 
	C139.212860,501.327942 139.073318,493.670868 138.958359,486.015228 
	C138.890869,481.520264 139.037674,477.022156 138.979034,472.526886 
	C138.942932,469.759552 138.579834,467.665863 142.831879,467.309204 
	C145.785767,467.061432 148.518204,464.173401 151.343109,462.468872 
	C152.447571,465.168610 153.560226,467.888367 155.079834,471.602875 
	C155.827408,469.818817 156.181595,468.973541 156.967041,467.099060 
	C160.306732,473.091003 158.158386,478.964691 159.192764,484.332520 
	C160.296768,490.061798 161.577438,495.756989 162.845535,501.773224 
	C171.559143,497.717438 181.102737,494.364532 188.646759,487.225708 
	C189.856155,486.081238 191.811356,485.679932 193.469437,485.063202 
	C198.103516,483.339508 202.642212,481.045166 207.438232,480.140320 
	C215.932007,478.537811 221.327774,483.950104 225.970490,490.037537 
	C229.126297,494.175415 231.953369,498.562775 234.975052,502.804626 
	C237.590179,506.475616 244.525253,509.109955 247.463196,507.776031 
	C249.824539,506.703857 252.242737,505.349426 254.741928,505.069946 
	C260.625031,504.412140 266.933868,502.910217 272.411835,504.316071 
	C281.823212,506.731445 291.505127,510.509338 295.472046,520.554382 
	C296.660034,523.562683 295.495544,529.150330 293.252289,531.476807 
	C289.886475,534.967285 284.063904,535.359924 279.725342,532.781372 
	C271.826813,528.086975 263.479553,526.020020 255.088654,529.265442 
	C249.234055,531.529846 243.524780,531.358154 237.971405,530.739990 
	C231.948303,530.069580 225.489532,529.324524 220.041199,525.009216 
z"/>
<path fill="#FFFFFF" opacity="1.000000" stroke="none" 
	d="
M341.000000,297.003723 
	C341.670380,306.810547 342.181610,316.155426 343.125061,325.456421 
	C343.355591,327.729065 346.091858,330.005432 345.818085,332.028687 
	C344.260193,343.541046 347.719421,354.610443 349.604034,365.549957 
	C350.710205,371.970886 351.213348,379.003448 354.251129,385.602081 
	C357.023956,391.625061 358.133453,399.543243 353.863129,406.380768 
	C352.311768,408.864777 345.042969,412.197479 343.071594,410.884827 
	C339.906647,408.777344 337.033661,406.328156 335.750214,402.355133 
	C333.850586,396.474731 330.822235,390.876709 329.568817,384.887604 
	C327.222229,373.674927 325.784821,362.270905 324.006073,350.940735 
	C322.651642,342.313171 321.247101,333.691132 320.076416,325.038025 
	C319.483795,320.657776 319.382172,316.212280 319.018341,311.799591 
	C318.361481,303.833221 317.568695,295.876617 317.022430,287.902954 
	C315.944153,272.164520 315.858063,256.291687 313.594086,240.731644 
	C312.605316,233.935760 311.901123,227.430832 313.175354,220.900299 
	C313.882874,217.274261 316.314270,213.964325 318.131561,210.599869 
	C318.368286,210.161606 320.223663,210.048050 320.246979,210.122696 
	C321.659546,214.637695 325.549469,211.160721 328.814209,212.704178 
	C327.225677,213.523880 326.299835,214.001617 326.141357,214.083389 
	C327.743622,216.953369 330.200714,219.699478 330.832275,222.815598 
	C332.345215,230.280334 332.937164,237.928009 334.015411,245.485474 
	C335.616302,256.706573 337.374023,267.905396 338.949951,279.129852 
	C339.761566,284.910431 340.324615,290.725922 341.000000,297.003723 
z"/>
<path fill="#FFFFFF" opacity="1.000000" stroke="none" 
	d="
M467.001892,324.938904 
	C465.666016,331.976562 465.278320,338.965363 462.756866,345.073303 
	C459.641876,352.619141 459.821808,360.289093 458.763214,367.994904 
	C457.750519,375.366577 454.731232,382.454010 452.732910,389.704681 
	C452.219604,391.567200 452.291870,393.583740 451.989471,395.512970 
	C450.560699,404.627869 445.571411,416.245636 435.683136,416.719299 
	C433.678314,416.815308 431.445465,416.813354 429.666412,416.047089 
	C425.152771,414.103027 426.978455,409.709747 427.278961,406.654388 
	C427.986359,399.461884 429.760254,392.378937 430.982910,385.231201 
	C432.394928,376.976562 433.514923,368.668854 435.075958,360.443878 
	C436.091156,355.094696 437.783173,349.877655 438.962830,344.555054 
	C440.423584,337.964172 441.483124,331.281219 443.050781,324.717987 
	C445.172485,315.835327 447.694336,307.048828 449.876892,298.179840 
	C450.797974,294.436951 451.066345,290.531067 452.023499,286.799866 
	C454.568268,276.879578 457.144928,266.960236 460.056061,257.143433 
	C462.454102,249.056808 465.217987,241.069443 468.124115,233.149796 
	C468.776550,231.371887 470.696381,230.059036 472.434326,228.073273 
	C472.696045,229.120102 473.003052,230.348160 473.310059,231.576218 
	C473.696533,231.652725 474.083008,231.729248 474.469482,231.805771 
	C474.787048,229.631363 475.104614,227.456970 475.551361,224.398132 
	C477.913788,226.181671 479.964111,227.729568 482.014404,229.277481 
	C482.158966,229.070251 482.303528,228.863037 482.448090,228.655823 
	C481.936493,228.051193 481.424896,227.446564 480.587952,226.457428 
	C482.682343,226.782425 484.217255,227.020599 485.236389,227.178741 
	C485.236389,229.836334 485.386078,232.268188 485.206635,234.675507 
	C484.774017,240.479309 484.845306,246.265579 482.222107,251.848145 
	C480.629089,255.238358 480.787994,259.428101 480.002289,263.226044 
	C478.047577,272.675201 475.950195,282.094940 474.008209,291.546631 
	C471.940430,301.610626 469.996490,311.700012 467.962952,321.771149 
	C467.773987,322.706970 467.329468,323.591156 467.001892,324.938904 
z"/>
<path fill="#000000" opacity="1.000000" stroke="none" 
	d="
M619.762207,298.596344 
	C616.250244,303.512573 612.380554,308.217316 609.316772,313.398529 
	C605.468140,319.907104 603.214539,327.585114 598.480774,333.265198 
	C595.267822,337.120514 594.807190,340.523926 595.074951,344.601288 
	C595.354980,348.866821 598.056763,351.733429 602.271423,351.879486 
	C607.161194,352.048950 613.236206,352.979370 616.715271,350.571747 
	C621.740540,347.094116 627.757141,347.831390 632.630554,344.462280 
	C635.281555,342.629639 639.525330,343.171906 643.014893,342.465942 
	C649.139648,341.226868 655.236877,339.851746 661.345642,338.533630 
	C661.631836,339.060883 661.918030,339.588135 662.204224,340.115387 
	C656.447937,344.077118 650.676941,348.017639 644.943481,352.012146 
	C642.945679,353.403992 641.031250,354.916565 639.095398,356.395691 
	C633.266357,360.849274 627.300659,365.139282 621.664795,369.825684 
	C616.680603,373.970276 611.078308,376.229309 604.936707,378.248871 
	C595.380432,381.391296 586.320862,386.036102 577.019836,389.971039 
	C575.565186,390.586426 573.907288,390.704315 572.411011,391.240814 
	C562.497131,394.795715 552.593201,398.378723 542.703003,401.998993 
	C534.585022,404.970490 526.439270,407.877014 518.403503,411.058899 
	C513.040222,413.182587 507.864227,415.775787 502.567963,418.074829 
	C501.293640,418.627991 499.874542,418.847656 498.522003,419.220734 
	C498.015228,418.599274 497.508453,417.977814 497.001648,417.356384 
	C504.094086,411.001404 511.148346,404.602997 518.297424,398.312378 
	C521.249756,395.714569 524.572571,393.524414 527.422241,390.827026 
	C530.300354,388.102753 532.709595,384.890503 535.485535,382.049713 
	C541.814636,375.572754 548.225769,369.175568 554.634460,362.776917 
	C562.181335,355.241821 569.761536,347.740143 577.325989,340.222656 
	C580.699890,336.869751 584.087158,333.530090 587.439087,330.155396 
	C593.526245,324.026947 600.397522,318.456512 605.380371,311.530029 
	C608.657410,306.974701 611.884766,302.534668 615.905334,298.663879 
	C616.408081,298.179840 617.401306,298.205292 618.748291,298.135254 
	C619.473633,298.382690 619.617920,298.489502 619.762207,298.596344 
z"/>
<path fill="#000000" opacity="1.000000" stroke="none" 
	d="
M619.125854,298.099426 
	C619.805725,295.709473 620.689087,293.495941 621.572449,291.282410 
	C622.146118,291.541473 622.719788,291.800568 623.293396,292.059631 
	C622.302795,294.075867 621.312195,296.092072 620.041870,298.352325 
	C619.617920,298.489502 619.473633,298.382690 619.125854,298.099426 
z"/>
<path fill="#000000" opacity="1.000000" stroke="none" 
	d="
M623.948608,290.814606 
	C623.885803,290.178650 624.173340,289.748749 624.460876,289.318848 
	C624.406921,289.886108 624.352966,290.453369 623.948608,290.814606 
z"/>
<path fill="#000000" opacity="1.000000" stroke="none" 
	d="
M184.077667,339.922974 
	C189.057159,342.314087 194.504623,344.059662 198.905029,347.249603 
	C205.296417,351.882843 217.066040,350.452789 219.570511,343.204742 
	C220.594284,340.241974 220.873047,336.323547 218.366104,332.295288 
	C213.691147,324.783295 210.707870,316.218140 207.025223,308.089172 
	C205.778244,305.336639 204.545380,302.577698 203.200668,299.587311 
	C207.117188,300.319519 209.654373,301.567993 211.602325,305.664673 
	C213.646225,309.963135 218.271591,312.956482 221.305161,316.878754 
	C226.964249,324.195740 232.167587,331.864197 237.789261,339.211395 
	C242.167084,344.932953 247.015305,350.293396 251.428619,355.989319 
	C256.136932,362.065948 260.627289,368.313965 265.127045,374.549042 
	C271.056763,382.765533 276.919983,391.030273 282.768372,399.304932 
	C283.764069,400.713715 284.542084,402.276367 285.710785,404.260437 
	C279.928772,402.289093 274.473145,400.591553 269.144348,398.561157 
	C264.829102,396.916901 260.753723,394.630157 256.414490,393.064789 
	C250.698669,391.002777 244.720642,389.643311 239.073181,387.426758 
	C236.465332,386.403259 234.075317,384.345642 232.111450,382.262085 
	C228.263321,378.179535 224.777206,373.755188 221.161896,369.454926 
	C220.871841,369.109924 220.772675,368.287048 220.531219,368.264679 
	C212.942383,367.561584 209.931107,360.262177 204.159714,356.856873 
	C199.187225,353.923004 194.998123,349.671509 190.415161,346.062958 
	C188.238724,344.349304 185.951569,342.776306 183.694397,340.709900 
	C183.808701,340.161133 183.943192,340.042053 184.077667,339.922974 
z"/>
<path fill="#000000" opacity="1.000000" stroke="none" 
	d="
M180.922211,338.076904 
	C178.975281,337.323639 177.028366,336.570343 175.081436,335.817078 
	C175.321274,335.266418 175.561127,334.715759 175.800964,334.165131 
	C177.635040,335.068268 179.469116,335.971405 181.314957,337.297638 
	C181.191879,337.839478 181.057053,337.958191 180.922211,338.076904 
z"/>
<path fill="#000000" opacity="1.000000" stroke="none" 
	d="
M183.456146,340.438477 
	C182.490829,339.977051 181.743607,339.357391 180.959290,338.407318 
	C181.057053,337.958191 181.191879,337.839478 181.546005,337.564087 
	C182.511398,338.025970 183.257507,338.644501 184.040649,339.593018 
	C183.943192,340.042053 183.808701,340.161133 183.456146,340.438477 
z"/>
<path fill="#000000" opacity="1.000000" stroke="none" 
	d="
M202.066193,297.138184 
	C202.366837,296.690491 202.906128,296.527832 202.956909,296.623779 
	C203.126190,296.943542 203.120285,297.356110 203.181519,297.733124 
	C202.814697,297.669312 202.447876,297.605499 202.066193,297.138184 
z"/>
<path fill="#000000" opacity="1.000000" stroke="none" 
	d="
M204.686081,298.730988 
	C204.382568,298.722992 204.312454,298.500244 204.242325,298.277466 
	C204.468048,298.357025 204.693756,298.436615 204.686081,298.730988 
z"/>
</svg>