<svg version="1.1" id="Layer_1" xmlns="http://www.w3.org/2000/svg" xmlns:xlink="http://www.w3.org/1999/xlink" x="0px" y="0px"
	 width="100%" viewBox="0 0 800 800" enable-background="new 0 0 800 800" xml:space="preserve">
<path fill="#000000" opacity="1.000000" stroke="none" 
	d="
M514.000000,801.000000 
	C342.666656,801.000000 171.833328,801.000000 1.000000,801.000000 
	C1.000000,534.333313 1.000000,267.666656 1.000000,1.000000 
	C267.666656,1.000000 534.333313,1.000000 801.000000,1.000000 
	C801.000000,267.666656 801.000000,534.333313 801.000000,801.000000 
	C705.500000,801.000000 610.000000,801.000000 514.000000,801.000000 
M528.300476,425.039917 
	C532.871338,426.359955 537.425659,428.685181 542.016907,428.760315 
	C548.618713,428.868408 555.369751,430.437836 562.002502,427.182526 
	C566.029846,425.205841 571.588623,426.063904 575.285400,423.762543 
	C581.682312,419.780304 589.228271,417.144165 593.819580,410.581604 
	C597.557068,405.239471 600.838440,399.513947 605.074585,394.608215 
	C607.749329,391.510651 607.145020,385.566315 613.222534,385.221924 
	C615.113403,385.114746 616.930359,383.621826 618.771851,382.743622 
	C622.069275,381.171112 625.316895,379.486023 628.663330,378.026794 
	C633.039429,376.118561 637.571350,374.554932 641.890686,372.532257 
	C647.542847,369.885406 652.917114,366.612457 658.657410,364.194061 
	C666.373291,360.943390 673.677734,357.181519 679.967590,351.564972 
	C684.033081,347.934723 683.750122,342.141602 679.850037,338.269714 
	C674.603577,333.061218 668.269775,335.227722 662.361084,335.102600 
	C649.397339,334.828156 636.423645,335.017517 624.070618,335.017517 
	C623.995605,334.592865 623.508118,333.649841 623.793335,333.134094 
	C625.078308,330.809998 626.631104,328.636200 627.997437,326.354431 
	C630.825806,321.630920 633.382935,316.729523 636.445251,312.165375 
	C640.422302,306.237793 644.944885,300.676453 648.928772,294.753082 
	C652.417664,289.565613 655.379395,284.026520 658.772400,278.770813 
	C662.059998,273.678406 665.628052,268.767883 669.022217,263.743225 
	C672.690369,258.312805 676.334045,252.865219 679.925049,247.383621 
	C683.384949,242.102219 686.913330,236.856262 690.128113,231.426895 
	C692.418030,227.559402 693.678833,222.978958 696.391907,219.488525 
	C701.125488,213.398560 703.689270,206.996094 703.064697,199.215912 
	C702.681702,194.444977 700.632324,192.445755 695.730347,191.916901 
	C690.452698,191.347488 687.162476,194.341812 683.303772,197.086288 
	C677.621704,201.127594 671.396912,204.406937 665.395752,207.998184 
	C659.246521,211.678040 652.865417,215.020248 646.983276,219.085495 
	C636.850220,226.088638 626.217590,232.338669 616.378845,239.795822 
	C612.135742,243.011871 607.064941,245.119507 602.711304,248.211121 
	C599.072510,250.795120 596.174011,254.426514 592.520813,256.984528 
	C583.385071,263.381470 574.002808,269.426178 564.727722,275.624451 
	C560.788513,278.256866 556.969604,281.085480 552.916748,283.527435 
	C547.836792,286.588257 542.377441,289.048096 537.440247,292.309784 
	C532.041016,295.876740 527.543213,301.241760 521.749756,303.661346 
	C515.449036,306.292816 510.997467,311.209930 505.065643,314.151978 
	C498.213379,317.550568 491.894135,322.015198 485.292633,325.931213 
	C481.156342,328.384888 476.958801,330.740875 472.724518,333.021454 
	C470.623444,334.153076 468.417938,335.744934 466.189758,335.868561 
	C458.285614,336.307098 453.799927,340.447571 454.090729,348.386749 
	C454.224487,352.037811 455.258789,355.668701 456.013824,359.281738 
	C457.885590,368.238831 462.866028,375.624695 468.272888,382.717194 
	C470.936005,386.210541 474.088196,389.329315 476.990936,392.642273 
	C479.118866,395.070953 480.903015,397.911713 483.379669,399.895630 
	C486.397736,402.313293 490.114594,403.837036 493.288300,406.087158 
	C498.010010,409.434845 502.174438,413.721832 507.207947,416.437927 
	C513.628357,419.902313 520.678406,422.199677 528.300476,425.039917 
M154.416595,256.882660 
	C154.950134,257.538147 155.749039,258.113831 155.974045,258.862122 
	C157.401550,263.608948 157.541489,269.252808 160.298492,272.978455 
	C165.264053,279.688660 164.786942,287.958282 168.236313,295.213318 
	C171.831879,302.775848 173.720261,311.786438 177.004593,319.953217 
	C180.027100,327.468903 183.044327,334.987579 186.174561,342.458527 
	C186.996826,344.421082 187.963898,346.440460 189.333313,348.029816 
	C191.634537,350.700623 189.868240,351.436890 187.741241,351.956329 
	C185.057343,352.611725 182.478378,351.712494 179.503525,353.680450 
	C176.000671,355.997711 170.970261,356.041199 166.579147,356.960419 
	C165.138840,357.261932 163.550415,356.963531 162.159943,357.377167 
	C155.003296,359.506073 147.942642,361.974823 140.741486,363.931091 
	C135.750275,365.287018 130.587143,366.011871 125.498482,367.006653 
	C121.130646,367.860474 117.409767,371.842712 117.001289,376.123871 
	C116.417870,382.238617 118.037048,386.135254 122.024155,386.899750 
	C128.524689,388.146149 135.106491,388.964844 141.647217,390.006592 
	C147.837646,390.992554 154.076645,391.773926 160.188477,393.124146 
	C166.109833,394.432281 171.875565,396.429718 177.749268,397.973663 
	C182.093185,399.115479 186.571259,399.791534 190.843460,401.138519 
	C192.444260,401.643280 193.894928,403.264465 194.960632,404.710724 
	C198.768143,409.877960 202.142090,415.382050 206.172623,420.359894 
	C208.071793,422.705475 210.839493,424.944305 213.654175,425.827545 
	C219.447205,427.645325 225.496841,429.299042 231.512848,429.604797 
	C241.403152,430.107544 251.381287,429.891693 261.259918,429.148407 
	C265.570831,428.824066 269.633667,425.708160 273.973724,425.157990 
	C282.625183,424.061340 289.511353,419.583557 295.987213,414.551880 
	C303.597870,408.638550 311.037872,402.368134 317.740967,395.465179 
	C323.736420,389.290985 328.845673,382.202881 333.912506,375.204224 
	C336.228699,372.004974 337.597717,368.093292 339.216949,364.425507 
	C340.307190,361.955902 341.479889,359.410187 341.894226,356.784637 
	C342.355896,353.859222 341.852417,350.796021 342.029755,347.808289 
	C342.438995,340.914032 337.845978,338.520813 332.802551,339.075531 
	C330.668060,339.310333 328.624969,340.375641 325.214142,341.501038 
	C326.738037,340.267303 327.144135,339.938507 327.632294,339.543274 
	C325.747650,338.874298 323.718567,338.523438 322.097076,337.516388 
	C313.713226,332.309143 305.397583,326.989380 297.127716,321.601990 
	C288.767273,316.155640 280.497070,310.570923 272.170380,305.072510 
	C266.589142,301.387085 260.919037,297.832886 255.403336,294.052734 
	C252.224777,291.874359 249.417023,289.140167 246.179092,287.067444 
	C243.224258,285.175903 239.414062,284.401398 236.868332,282.136871 
	C231.983383,277.791534 226.425156,274.486115 221.228729,270.638000 
	C219.356628,269.251648 217.805420,267.431122 215.929901,266.050385 
	C207.062622,259.522461 198.126892,253.087662 189.230316,246.599457 
	C185.778778,244.082275 182.300705,241.594421 178.953186,238.943619 
	C175.238647,236.002182 170.833557,233.461945 168.231781,229.706116 
	C165.030487,225.084839 158.498184,221.766281 153.544479,224.253220 
	C151.919540,225.069000 150.066269,226.013535 149.090012,227.431213 
	C145.821121,232.178253 145.905319,236.314774 149.317123,241.514801 
	C152.263168,246.004959 153.725449,250.825333 154.416595,256.882660 
M534.909729,508.878174 
	C532.157654,508.221130 529.405640,507.564056 526.505981,506.871765 
	C525.961365,508.642303 525.514282,510.095703 525.036194,511.650146 
	C526.767883,511.931458 528.153015,512.156433 529.538147,512.381470 
	C529.522827,512.530640 529.507446,512.679871 529.492126,512.829041 
	C527.739807,512.953369 525.987427,513.077637 524.834351,513.159424 
	C523.588318,520.240479 521.998657,526.757812 521.400330,533.364929 
	C520.772034,540.302856 521.093567,547.326782 521.000305,554.313171 
	C520.998108,554.479858 520.999756,554.646484 521.000000,554.813171 
	C521.010559,562.131714 528.449036,567.082825 535.292358,564.205139 
	C538.172424,562.994141 540.869202,561.354614 543.702637,560.023560 
	C547.362671,558.304138 552.080811,558.069153 553.155457,552.854797 
	C553.271606,552.291138 554.345154,551.584839 555.021790,551.530212 
	C560.622742,551.078186 562.323242,545.733582 566.031189,542.934814 
	C566.983459,542.215942 568.257568,541.024963 569.055054,541.244629 
	C569.905334,541.478760 570.359314,543.131653 570.998352,544.157654 
	C572.625244,546.769653 573.751282,549.974670 575.985779,551.874268 
	C582.523071,557.431641 590.901184,556.145081 597.762634,554.213257 
	C606.246765,551.824585 614.017639,546.672241 621.823364,542.233459 
	C624.453552,540.737732 627.859436,539.954712 629.217102,536.175842 
	C629.702454,534.824951 633.124512,534.529114 635.872864,533.502747 
	C636.774841,536.184509 638.186401,539.414124 638.917664,542.791077 
	C639.912476,547.385559 646.144531,555.691772 652.981445,554.919983 
	C658.134949,554.338196 663.173096,552.474731 668.321899,552.163635 
	C679.255371,551.503174 686.209290,543.808655 694.261780,538.159363 
	C697.958618,535.565796 700.558105,531.459656 704.079834,528.554016 
	C711.362244,522.545654 715.393372,515.368225 713.614807,504.850037 
	C710.287354,504.850037 706.781616,504.850037 704.937378,504.850037 
	C701.044067,510.372772 698.506104,515.116455 694.892578,518.807007 
	C690.450134,523.344177 685.377625,527.403931 680.085144,530.931274 
	C674.456116,534.682922 668.349609,537.774353 662.242188,540.719727 
	C660.222290,541.693848 657.531250,541.563965 655.194824,541.368408 
	C654.683960,541.325623 654.410522,538.836731 653.970093,537.493347 
	C652.197266,532.085449 650.498535,526.649963 648.560486,521.301514 
	C647.914734,519.519409 647.006470,517.459534 645.572083,516.408508 
	C641.794739,513.640747 630.529480,515.753296 626.939819,518.990845 
	C622.237305,523.232239 617.350647,527.343811 612.142639,530.929504 
	C606.896790,534.541321 601.203430,537.517761 595.627197,540.631165 
	C589.740845,543.917786 585.155884,541.579407 583.980286,534.874817 
	C583.728638,533.439575 583.462952,531.979309 582.960571,530.620483 
	C581.159607,525.749146 576.743347,521.819214 572.709045,521.577393 
	C568.553101,521.328369 563.646667,524.689270 559.965454,527.603577 
	C554.947937,531.575745 550.964111,536.825195 546.186096,541.138062 
	C542.734802,544.253418 538.712036,546.735596 534.988342,549.467651 
	C534.988342,535.639709 534.988342,522.715149 534.909729,508.878174 
M402.495026,614.000000 
	C408.978241,614.653625 414.803314,612.659424 419.883759,608.910156 
	C424.121613,605.782776 428.853943,602.661865 431.660431,598.411255 
	C436.058380,591.750122 439.156921,584.203735 442.534973,576.906921 
	C444.616333,572.411133 446.920532,567.817688 447.813629,563.023743 
	C448.918945,557.090881 448.659058,550.904541 449.002045,544.828430 
	C449.285675,539.802551 446.142883,538.358765 441.924133,537.998474 
	C437.653534,537.633667 432.844025,540.193176 433.183380,543.617065 
	C434.017517,552.032837 429.617645,558.965637 427.667328,566.561401 
	C426.724030,570.235352 425.263702,573.961304 423.206146,577.122620 
	C419.818542,582.327454 415.800354,587.127808 411.956940,592.027283 
	C410.176697,594.296631 402.021179,597.117249 400.593384,595.736816 
	C397.838013,593.072815 394.862885,590.294861 393.154602,586.961609 
	C389.836182,580.486633 384.792572,576.068604 380.259033,578.218811 
	C375.942657,580.265991 372.277283,583.829468 368.607239,587.047302 
	C365.961304,589.367188 363.777008,592.213562 360.489044,595.805969 
	C359.388275,590.617737 358.506348,587.361389 358.043945,584.046509 
	C357.504608,580.180237 356.994995,576.252502 357.113251,572.370972 
	C357.198303,569.578979 358.639771,566.851074 358.934235,564.037842 
	C359.494781,558.683228 359.621887,553.284424 360.046967,547.913269 
	C360.116852,547.030396 360.906158,546.228760 361.162811,545.332275 
	C362.477783,540.739685 364.205841,536.192566 364.835388,531.501526 
	C365.273407,528.237610 362.453064,525.469849 359.431030,525.389709 
	C355.972107,525.297974 350.251007,525.885498 349.379822,527.872986 
	C346.072876,535.417419 343.735443,543.533691 342.187164,551.655762 
	C340.933899,558.230347 341.064301,565.120361 341.073120,571.869812 
	C341.082611,579.118103 341.104462,586.452209 342.202698,593.582214 
	C342.904877,598.140930 344.974091,602.782898 347.507202,606.689270 
	C350.479919,611.273560 355.278992,613.218506 361.028290,612.039734 
	C364.187439,611.391968 367.843567,611.939392 370.533905,610.531067 
	C374.281250,608.569336 377.333710,605.280151 380.626129,602.605774 
	C386.409393,608.186096 391.531647,615.479004 402.495026,614.000000 
M259.091522,536.614136 
	C263.896820,533.563232 268.702087,530.512268 273.334930,527.570801 
	C274.005890,525.737366 274.129395,523.257812 275.398682,522.305359 
	C280.656830,518.359985 280.087341,513.505310 278.673096,508.535339 
	C270.046997,505.168854 266.844025,513.078369 262.642639,516.845398 
	C257.775726,521.209045 252.663712,524.749634 247.074448,527.830994 
	C246.682632,528.046997 245.625641,527.091858 244.895355,526.652405 
	C241.976624,524.896057 242.477783,521.606323 241.351028,519.036987 
	C238.509033,512.556274 235.708557,505.893982 231.658340,500.178253 
	C229.745544,497.478790 223.191666,494.517822 221.865234,495.579407 
	C216.653412,499.750702 208.391464,501.317352 207.380981,509.844238 
	C207.293152,510.585327 206.202774,511.212921 205.567291,511.882996 
	C200.688080,517.027588 195.789780,522.154236 190.932022,527.318970 
	C188.492874,529.912231 185.163879,529.621460 182.806442,526.681030 
	C180.393951,523.672058 177.836258,520.779663 175.358643,517.822449 
	C172.758743,514.719360 164.591309,513.584778 161.576553,516.261902 
	C154.607330,522.450745 147.887344,528.920044 140.926346,535.118408 
	C139.235809,536.623779 137.003784,537.521118 134.594025,538.951294 
	C133.012558,532.027222 131.687286,526.501831 130.512314,520.944641 
	C130.040009,518.710938 130.078781,516.365967 129.570465,514.143555 
	C128.134155,507.863953 125.819817,501.687134 125.238152,495.342682 
	C124.812523,490.700317 124.115936,487.288910 119.278961,486.000580 
	C120.009064,484.414490 120.633896,483.057129 121.424713,481.339172 
	C117.872482,481.339172 115.007591,481.339172 111.971931,481.339172 
	C112.324768,485.954956 112.524361,490.238708 113.011971,494.489471 
	C113.532562,499.027863 114.419395,503.523529 114.976181,508.058685 
	C115.754738,514.400330 115.821991,520.890198 117.260368,527.068298 
	C118.206276,531.131165 116.575699,536.315979 121.281822,539.215454 
	C121.438484,539.312012 121.244446,539.944092 121.249153,540.326111 
	C121.291595,543.774841 127.779861,550.573120 131.282761,551.015259 
	C139.427856,552.043274 146.434372,550.150757 152.529755,544.252502 
	C157.152191,539.779541 162.469864,536.025024 167.092545,532.264526 
	C170.696976,536.100647 173.837997,539.358521 176.880127,542.706177 
	C179.698898,545.807922 183.629532,547.335510 187.033463,545.692566 
	C192.548523,543.030579 197.705063,539.414734 202.521393,535.583618 
	C206.323471,532.559326 209.071411,528.199463 212.904068,525.228088 
	C214.963165,523.631714 216.497421,522.617188 217.244720,519.833252 
	C217.759262,517.916565 220.501602,516.597961 222.248260,515.012085 
	C223.350693,516.280884 224.721725,517.410828 225.472153,518.861694 
	C226.093491,520.062988 225.746719,521.732910 226.243958,523.036926 
	C227.369308,525.988281 228.961441,528.769531 229.986252,531.749756 
	C232.427017,538.847717 240.685028,543.552246 247.956863,541.482727 
	C251.690048,540.420288 255.257187,538.774414 259.091522,536.614136 
M338.962158,257.814056 
	C336.432526,253.493744 333.970428,249.131744 331.342072,244.872360 
	C330.187347,243.001053 328.478058,241.461487 327.395844,239.557938 
	C324.481842,234.432449 322.079620,228.993088 318.901459,224.046310 
	C314.647614,217.425140 309.670319,211.271561 305.345245,204.692627 
	C301.021027,198.115036 297.258698,191.169876 292.994629,184.550400 
	C287.477295,175.985367 281.178009,167.925034 276.838196,158.611649 
	C274.976837,154.617096 271.012085,155.739044 268.022400,156.218857 
	C266.177368,156.514954 263.775269,158.642181 263.175568,160.459564 
	C260.831787,167.562347 265.810181,180.256073 272.279968,185.112061 
	C272.599091,185.351593 272.722748,185.855225 272.929535,186.240097 
	C274.478302,189.121933 275.787628,192.166473 277.618134,194.856415 
	C282.618469,202.204559 287.974426,209.312134 292.922058,216.694290 
	C296.077759,221.402802 298.669373,226.485214 301.669830,231.302856 
	C307.064331,239.964417 312.162842,248.861206 318.246094,257.017487 
	C320.618469,260.198273 319.768005,265.539062 324.955597,266.829498 
	C327.106812,267.364655 329.068756,268.660736 331.272400,269.682983 
	C338.901489,262.194855 338.901489,262.194855 338.962158,257.814056 
M445.000000,264.440735 
	C444.633484,267.907074 444.918365,271.164337 448.913025,272.342987 
	C452.081329,273.277802 455.602234,274.360779 458.002625,270.972351 
	C461.165161,266.508087 464.143372,261.896790 466.937958,257.192627 
	C470.414551,251.340485 473.483459,245.245255 476.986938,239.410248 
	C480.348877,233.811050 484.093750,228.443237 487.571228,222.911438 
	C490.156311,218.799210 492.600250,214.597595 495.068878,210.413269 
	C495.739990,209.275772 496.272949,208.056763 497.423401,205.777390 
	C497.392853,205.794678 499.157654,205.398895 499.773193,204.336960 
	C501.826477,200.794647 503.157349,196.816544 505.343079,193.372253 
	C508.287048,188.733124 511.934326,184.543610 514.944885,179.942032 
	C516.343079,177.804871 518.369934,174.466553 517.605347,172.882614 
	C516.261414,170.098450 513.324646,167.120911 510.448334,166.266434 
	C506.238098,165.015732 501.591034,165.363068 499.835144,171.262070 
	C499.198059,173.402435 497.085693,175.081482 495.746216,177.039261 
	C492.147186,182.299637 488.525513,187.547165 485.054596,192.891891 
	C480.593323,199.761597 476.269836,206.720825 471.887726,213.641968 
	C470.256897,216.217728 468.594879,218.774567 467.008270,221.377335 
	C465.653107,223.600449 464.385590,225.877029 463.079315,228.129974 
	C462.729126,227.955917 462.378937,227.781845 462.028748,227.607788 
	C462.356079,228.594589 462.683380,229.581375 463.010681,230.568161 
	C462.436554,230.447845 461.862396,230.327515 461.288269,230.207199 
	C460.430176,232.395187 459.773956,234.690659 458.676727,236.751343 
	C455.133240,243.406433 452.101379,250.510422 447.476624,256.332764 
	C445.418243,258.924194 445.208557,260.936829 445.000000,264.440735 
z"/>
<path fill="#FFFFFF" opacity="1.000000" stroke="none" 
	d="
M527.878784,425.019989 
	C520.678406,422.199677 513.628357,419.902313 507.207947,416.437927 
	C502.174438,413.721832 498.010010,409.434845 493.288300,406.087158 
	C490.114594,403.837036 486.397736,402.313293 483.379669,399.895630 
	C480.903015,397.911713 479.118866,395.070953 476.990936,392.642273 
	C474.088196,389.329315 470.936005,386.210541 468.272888,382.717194 
	C462.866028,375.624695 457.885590,368.238831 456.013824,359.281738 
	C455.258789,355.668701 454.224487,352.037811 454.090729,348.386749 
	C453.799927,340.447571 458.285614,336.307098 466.189758,335.868561 
	C468.417938,335.744934 470.623444,334.153076 472.724518,333.021454 
	C476.958801,330.740875 481.156342,328.384888 485.292633,325.931213 
	C491.894135,322.015198 498.213379,317.550568 505.065643,314.151978 
	C510.997467,311.209930 515.449036,306.292816 521.749756,303.661346 
	C527.543213,301.241760 532.041016,295.876740 537.440247,292.309784 
	C542.377441,289.048096 547.836792,286.588257 552.916748,283.527435 
	C556.969604,281.085480 560.788513,278.256866 564.727722,275.624451 
	C574.002808,269.426178 583.385071,263.381470 592.520813,256.984528 
	C596.174011,254.426514 599.072510,250.795120 602.711304,248.211121 
	C607.064941,245.119507 612.135742,243.011871 616.378845,239.795822 
	C626.217590,232.338669 636.850220,226.088638 646.983276,219.085495 
	C652.865417,215.020248 659.246521,211.678040 665.395752,207.998184 
	C671.396912,204.406937 677.621704,201.127594 683.303772,197.086288 
	C687.162476,194.341812 690.452698,191.347488 695.730347,191.916901 
	C700.632324,192.445755 702.681702,194.444977 703.064697,199.215912 
	C703.689270,206.996094 701.125488,213.398560 696.391907,219.488525 
	C693.678833,222.978958 692.418030,227.559402 690.128113,231.426895 
	C686.913330,236.856262 683.384949,242.102219 679.925049,247.383621 
	C676.334045,252.865219 672.690369,258.312805 669.022217,263.743225 
	C665.628052,268.767883 662.059998,273.678406 658.772400,278.770813 
	C655.379395,284.026520 652.417664,289.565613 648.928772,294.753082 
	C644.944885,300.676453 640.422302,306.237793 636.445251,312.165375 
	C633.382935,316.729523 630.825806,321.630920 627.997437,326.354431 
	C626.631104,328.636200 625.078308,330.809998 623.793335,333.134094 
	C623.508118,333.649841 623.995605,334.592865 624.070618,335.017517 
	C636.423645,335.017517 649.397339,334.828156 662.361084,335.102600 
	C668.269775,335.227722 674.603577,333.061218 679.850037,338.269714 
	C683.750122,342.141602 684.033081,347.934723 679.967590,351.564972 
	C673.677734,357.181519 666.373291,360.943390 658.657410,364.194061 
	C652.917114,366.612457 647.542847,369.885406 641.890686,372.532257 
	C637.571350,374.554932 633.039429,376.118561 628.663330,378.026794 
	C625.316895,379.486023 622.069275,381.171112 618.771851,382.743622 
	C616.930359,383.621826 615.113403,385.114746 613.222534,385.221924 
	C607.145020,385.566315 607.749329,391.510651 605.074585,394.608215 
	C600.838440,399.513947 597.557068,405.239471 593.819580,410.581604 
	C589.228271,417.144165 581.682312,419.780304 575.285400,423.762543 
	C571.588623,426.063904 566.029846,425.205841 562.002502,427.182526 
	C555.369751,430.437836 548.618713,428.868408 542.016907,428.760315 
	C537.425659,428.685181 532.871338,426.359955 527.878784,425.019989 
M653.973877,256.139465 
	C657.561584,250.006821 661.149292,243.874176 664.739502,237.752213 
	C667.129700,234.314133 669.519897,230.876068 671.910095,227.437988 
	C671.657532,227.108734 671.404907,226.779480 671.152344,226.450211 
	C669.024109,227.961578 666.966431,229.586090 664.755066,230.963928 
	C656.786621,235.928833 648.705688,240.715271 640.789307,245.760620 
	C636.258850,248.647995 632.216919,252.378342 627.508850,254.893936 
	C618.810059,259.541809 612.317688,267.178192 603.362549,271.584717 
	C597.471985,274.483276 592.676819,279.538208 587.173828,283.310608 
	C579.395569,288.642731 571.381775,293.629761 563.536438,298.865875 
	C558.642212,302.132416 553.961426,305.723083 549.023865,308.919495 
	C543.428589,312.541656 537.637146,315.859467 531.960754,319.357941 
	C525.885010,323.102631 519.894043,326.987000 513.773438,330.655945 
	C507.833557,334.216583 501.729675,337.503265 495.782135,341.051636 
	C488.191956,345.580078 480.686462,350.250397 472.028015,355.541870 
	C476.831696,362.647705 481.272705,370.208008 486.722290,376.953430 
	C490.820343,382.025940 495.902283,386.460449 501.115997,390.430756 
	C506.373932,394.434753 512.187073,397.794830 518.044861,400.892609 
	C521.351501,402.641174 526.206604,402.281921 528.669434,404.641235 
	C534.424072,410.153717 541.856506,410.132538 548.339661,410.575134 
	C557.373596,411.191956 566.614136,408.687927 574.222229,402.907959 
	C578.205444,399.881836 582.992188,396.979431 585.271851,392.840271 
	C589.948364,384.348999 595.126526,375.667694 594.048279,365.181244 
	C593.944153,364.169098 594.599976,363.100433 594.750366,362.036438 
	C595.185547,358.958527 596.210693,355.774811 595.789185,352.805084 
	C594.959961,346.962891 593.275146,341.244873 592.009399,335.461182 
	C590.635864,329.185028 590.007324,322.643829 587.797180,316.684326 
	C585.957153,311.723114 585.545898,307.827118 587.627075,302.690521 
	C589.030701,299.225983 590.482056,298.647736 593.189087,299.074219 
	C595.520752,299.441589 598.296448,299.835846 599.929443,301.284790 
	C606.016235,306.685516 604.801208,314.998016 607.791931,322.023132 
	C608.328857,321.817932 609.464722,321.748413 609.884155,321.164337 
	C612.664917,317.292236 615.384949,313.368958 617.947083,309.349121 
	C621.582764,303.644958 624.940613,297.761536 628.643860,292.103119 
	C633.653076,284.449371 638.785645,276.871918 644.044434,269.387634 
	C647.068054,265.084442 650.445618,261.029938 653.973877,256.139465 
M626.450073,354.000000 
	C621.699524,354.000000 616.948914,354.000000 612.208984,354.000000 
	C612.208984,357.971680 612.208984,361.381653 612.208984,365.339142 
	C620.624207,361.725403 628.662781,358.273407 636.701355,354.821381 
	C636.652405,354.547577 636.603516,354.273804 636.554565,354.000000 
	C633.511475,354.000000 630.468445,354.000000 626.450073,354.000000 
z"/>
<path fill="#FFFFFF" opacity="1.000000" stroke="none" 
	d="
M154.223068,256.488525 
	C153.725449,250.825333 152.263168,246.004959 149.317123,241.514801 
	C145.905319,236.314774 145.821121,232.178253 149.090012,227.431213 
	C150.066269,226.013535 151.919540,225.069000 153.544479,224.253220 
	C158.498184,221.766281 165.030487,225.084839 168.231781,229.706116 
	C170.833557,233.461945 175.238647,236.002182 178.953186,238.943619 
	C182.300705,241.594421 185.778778,244.082275 189.230316,246.599457 
	C198.126892,253.087662 207.062622,259.522461 215.929901,266.050385 
	C217.805420,267.431122 219.356628,269.251648 221.228729,270.638000 
	C226.425156,274.486115 231.983383,277.791534 236.868332,282.136871 
	C239.414062,284.401398 243.224258,285.175903 246.179092,287.067444 
	C249.417023,289.140167 252.224777,291.874359 255.403336,294.052734 
	C260.919037,297.832886 266.589142,301.387085 272.170380,305.072510 
	C280.497070,310.570923 288.767273,316.155640 297.127716,321.601990 
	C305.397583,326.989380 313.713226,332.309143 322.097076,337.516388 
	C323.718567,338.523438 325.747650,338.874298 327.632294,339.543274 
	C327.144135,339.938507 326.738037,340.267303 325.214142,341.501038 
	C328.624969,340.375641 330.668060,339.310333 332.802551,339.075531 
	C337.845978,338.520813 342.438995,340.914032 342.029755,347.808289 
	C341.852417,350.796021 342.355896,353.859222 341.894226,356.784637 
	C341.479889,359.410187 340.307190,361.955902 339.216949,364.425507 
	C337.597717,368.093292 336.228699,372.004974 333.912506,375.204224 
	C328.845673,382.202881 323.736420,389.290985 317.740967,395.465179 
	C311.037872,402.368134 303.597870,408.638550 295.987213,414.551880 
	C289.511353,419.583557 282.625183,424.061340 273.973724,425.157990 
	C269.633667,425.708160 265.570831,428.824066 261.259918,429.148407 
	C251.381287,429.891693 241.403152,430.107544 231.512848,429.604797 
	C225.496841,429.299042 219.447205,427.645325 213.654175,425.827545 
	C210.839493,424.944305 208.071793,422.705475 206.172623,420.359894 
	C202.142090,415.382050 198.768143,409.877960 194.960632,404.710724 
	C193.894928,403.264465 192.444260,401.643280 190.843460,401.138519 
	C186.571259,399.791534 182.093185,399.115479 177.749268,397.973663 
	C171.875565,396.429718 166.109833,394.432281 160.188477,393.124146 
	C154.076645,391.773926 147.837646,390.992554 141.647217,390.006592 
	C135.106491,388.964844 128.524689,388.146149 122.024155,386.899750 
	C118.037048,386.135254 116.417870,382.238617 117.001289,376.123871 
	C117.409767,371.842712 121.130646,367.860474 125.498482,367.006653 
	C130.587143,366.011871 135.750275,365.287018 140.741486,363.931091 
	C147.942642,361.974823 155.003296,359.506073 162.159943,357.377167 
	C163.550415,356.963531 165.138840,357.261932 166.579147,356.960419 
	C170.970261,356.041199 176.000671,355.997711 179.503525,353.680450 
	C182.478378,351.712494 185.057343,352.611725 187.741241,351.956329 
	C189.868240,351.436890 191.634537,350.700623 189.333313,348.029816 
	C187.963898,346.440460 186.996826,344.421082 186.174561,342.458527 
	C183.044327,334.987579 180.027100,327.468903 177.004593,319.953217 
	C173.720261,311.786438 171.831879,302.775848 168.236313,295.213318 
	C164.786942,287.958282 165.264053,279.688660 160.298492,272.978455 
	C157.541489,269.252808 157.401550,263.608948 155.974045,258.862122 
	C155.749039,258.113831 154.950134,257.538147 154.223068,256.488525 
M259.130463,410.998901 
	C260.791870,410.332001 262.434021,409.611420 264.118164,409.007996 
	C269.795532,406.973969 275.905884,405.714050 281.059540,402.772186 
	C286.465729,399.686188 290.654602,394.531403 295.918945,391.119232 
	C305.713715,384.770630 311.423584,375.054718 317.963989,365.989136 
	C319.716858,363.559509 321.050232,360.827209 322.472046,358.410858 
	C312.977875,352.603394 303.507477,346.739166 293.958862,341.005127 
	C290.174713,338.732697 286.053253,336.997162 282.380035,334.571106 
	C277.922913,331.627228 273.852905,328.104156 269.477814,325.027344 
	C264.053009,321.212250 258.489044,317.594849 252.981598,313.897400 
	C248.379318,310.807617 243.822403,307.644623 239.124390,304.707642 
	C238.174118,304.113556 236.049591,303.811493 235.549271,304.360901 
	C233.470261,306.643921 231.025818,309.057587 230.135406,311.872498 
	C227.483093,320.257294 220.617264,326.411652 218.745285,335.301910 
	C217.481873,341.302032 214.418961,346.948151 211.949219,352.661072 
	C210.168304,356.780579 212.374069,362.311951 207.439499,365.311859 
	C207.185394,365.466339 207.158920,366.143921 207.175171,366.572327 
	C207.429459,373.279236 208.319519,380.031219 207.818893,386.679169 
	C207.256729,394.144470 211.516144,399.096680 215.707489,403.777557 
	C222.162292,410.986206 231.885239,411.329376 240.576614,412.704651 
	C246.255417,413.603271 252.382843,411.666748 259.130463,410.998901 
M185.029266,291.159698 
	C189.800674,303.491272 194.572083,315.822845 199.505325,328.572662 
	C209.341660,317.538452 211.200729,302.262756 222.404846,293.379303 
	C206.664322,281.670593 191.056442,270.060547 175.285217,258.329010 
	C175.225998,259.136383 174.808823,260.316864 175.123108,261.251282 
	C177.671738,268.828033 180.372604,276.353424 182.991730,283.906738 
	C183.722549,286.014374 184.335342,288.162903 185.029266,291.159698 
M188.068069,381.571930 
	C188.691528,381.404053 189.853516,381.251862 189.858917,381.066010 
	C189.965683,377.389709 189.938461,373.709503 189.938461,370.528656 
	C182.036530,372.415985 174.758942,374.154175 167.602676,375.863373 
	C167.604462,375.865997 167.818527,376.564087 168.164612,376.637146 
	C173.696838,377.805603 179.249863,378.875275 184.787323,380.019836 
	C185.699097,380.208282 186.559448,380.645416 188.068069,381.571930 
z"/>
<path fill="#FF5E5E" opacity="1.000000" stroke="none" 
	d="
M534.949036,509.334381 
	C534.988342,522.715149 534.988342,535.639709 534.988342,549.467651 
	C538.712036,546.735596 542.734802,544.253418 546.186096,541.138062 
	C550.964111,536.825195 554.947937,531.575745 559.965454,527.603577 
	C563.646667,524.689270 568.553101,521.328369 572.709045,521.577393 
	C576.743347,521.819214 581.159607,525.749146 582.960571,530.620483 
	C583.462952,531.979309 583.728638,533.439575 583.980286,534.874817 
	C585.155884,541.579407 589.740845,543.917786 595.627197,540.631165 
	C601.203430,537.517761 606.896790,534.541321 612.142639,530.929504 
	C617.350647,527.343811 622.237305,523.232239 626.939819,518.990845 
	C630.529480,515.753296 641.794739,513.640747 645.572083,516.408508 
	C647.006470,517.459534 647.914734,519.519409 648.560486,521.301514 
	C650.498535,526.649963 652.197266,532.085449 653.970093,537.493347 
	C654.410522,538.836731 654.683960,541.325623 655.194824,541.368408 
	C657.531250,541.563965 660.222290,541.693848 662.242188,540.719727 
	C668.349609,537.774353 674.456116,534.682922 680.085144,530.931274 
	C685.377625,527.403931 690.450134,523.344177 694.892578,518.807007 
	C698.506104,515.116455 701.044067,510.372772 704.937378,504.850037 
	C706.781616,504.850037 710.287354,504.850037 713.614807,504.850037 
	C715.393372,515.368225 711.362244,522.545654 704.079834,528.554016 
	C700.558105,531.459656 697.958618,535.565796 694.261780,538.159363 
	C686.209290,543.808655 679.255371,551.503174 668.321899,552.163635 
	C663.173096,552.474731 658.134949,554.338196 652.981445,554.919983 
	C646.144531,555.691772 639.912476,547.385559 638.917664,542.791077 
	C638.186401,539.414124 636.774841,536.184509 635.872864,533.502747 
	C633.124512,534.529114 629.702454,534.824951 629.217102,536.175842 
	C627.859436,539.954712 624.453552,540.737732 621.823364,542.233459 
	C614.017639,546.672241 606.246765,551.824585 597.762634,554.213257 
	C590.901184,556.145081 582.523071,557.431641 575.985779,551.874268 
	C573.751282,549.974670 572.625244,546.769653 570.998352,544.157654 
	C570.359314,543.131653 569.905334,541.478760 569.055054,541.244629 
	C568.257568,541.024963 566.983459,542.215942 566.031189,542.934814 
	C562.323242,545.733582 560.622742,551.078186 555.021790,551.530212 
	C554.345154,551.584839 553.271606,552.291138 553.155457,552.854797 
	C552.080811,558.069153 547.362671,558.304138 543.702637,560.023560 
	C540.869202,561.354614 538.172424,562.994141 535.292358,564.205139 
	C528.449036,567.082825 521.010559,562.131714 521.000000,554.813171 
	C520.999756,554.646484 520.998108,554.479858 521.000305,554.313171 
	C521.093567,547.326782 520.772034,540.302856 521.400330,533.364929 
	C521.998657,526.757812 523.588318,520.240479 524.834351,513.159424 
	C525.987427,513.077637 527.739807,512.953369 529.492126,512.829041 
	C529.507446,512.679871 529.522827,512.530640 529.538147,512.381470 
	C528.153015,512.156433 526.767883,511.931458 525.036194,511.650146 
	C525.514282,510.095703 525.961365,508.642303 526.505981,506.871765 
	C529.405640,507.564056 532.157654,508.221130 534.949036,509.334381 
z"/>
<path fill="#FFFFFF" opacity="1.000000" stroke="none" 
	d="
M402.011414,614.000000 
	C391.531647,615.479004 386.409393,608.186096 380.626129,602.605774 
	C377.333710,605.280151 374.281250,608.569336 370.533905,610.531067 
	C367.843567,611.939392 364.187439,611.391968 361.028290,612.039734 
	C355.278992,613.218506 350.479919,611.273560 347.507202,606.689270 
	C344.974091,602.782898 342.904877,598.140930 342.202698,593.582214 
	C341.104462,586.452209 341.082611,579.118103 341.073120,571.869812 
	C341.064301,565.120361 340.933899,558.230347 342.187164,551.655762 
	C343.735443,543.533691 346.072876,535.417419 349.379822,527.872986 
	C350.251007,525.885498 355.972107,525.297974 359.431030,525.389709 
	C362.453064,525.469849 365.273407,528.237610 364.835388,531.501526 
	C364.205841,536.192566 362.477783,540.739685 361.162811,545.332275 
	C360.906158,546.228760 360.116852,547.030396 360.046967,547.913269 
	C359.621887,553.284424 359.494781,558.683228 358.934235,564.037842 
	C358.639771,566.851074 357.198303,569.578979 357.113251,572.370972 
	C356.994995,576.252502 357.504608,580.180237 358.043945,584.046509 
	C358.506348,587.361389 359.388275,590.617737 360.489044,595.805969 
	C363.777008,592.213562 365.961304,589.367188 368.607239,587.047302 
	C372.277283,583.829468 375.942657,580.265991 380.259033,578.218811 
	C384.792572,576.068604 389.836182,580.486633 393.154602,586.961609 
	C394.862885,590.294861 397.838013,593.072815 400.593384,595.736816 
	C402.021179,597.117249 410.176697,594.296631 411.956940,592.027283 
	C415.800354,587.127808 419.818542,582.327454 423.206146,577.122620 
	C425.263702,573.961304 426.724030,570.235352 427.667328,566.561401 
	C429.617645,558.965637 434.017517,552.032837 433.183380,543.617065 
	C432.844025,540.193176 437.653534,537.633667 441.924133,537.998474 
	C446.142883,538.358765 449.285675,539.802551 449.002045,544.828430 
	C448.659058,550.904541 448.918945,557.090881 447.813629,563.023743 
	C446.920532,567.817688 444.616333,572.411133 442.534973,576.906921 
	C439.156921,584.203735 436.058380,591.750122 431.660431,598.411255 
	C428.853943,602.661865 424.121613,605.782776 419.883759,608.910156 
	C414.803314,612.659424 408.978241,614.653625 402.011414,614.000000 
z"/>
<path fill="#FF5E5E" opacity="1.000000" stroke="none" 
	d="
M258.995422,537.003174 
	C255.257187,538.774414 251.690048,540.420288 247.956863,541.482727 
	C240.685028,543.552246 232.427017,538.847717 229.986252,531.749756 
	C228.961441,528.769531 227.369308,525.988281 226.243958,523.036926 
	C225.746719,521.732910 226.093491,520.062988 225.472153,518.861694 
	C224.721725,517.410828 223.350693,516.280884 222.248260,515.012085 
	C220.501602,516.597961 217.759262,517.916565 217.244720,519.833252 
	C216.497421,522.617188 214.963165,523.631714 212.904068,525.228088 
	C209.071411,528.199463 206.323471,532.559326 202.521393,535.583618 
	C197.705063,539.414734 192.548523,543.030579 187.033463,545.692566 
	C183.629532,547.335510 179.698898,545.807922 176.880127,542.706177 
	C173.837997,539.358521 170.696976,536.100647 167.092545,532.264526 
	C162.469864,536.025024 157.152191,539.779541 152.529755,544.252502 
	C146.434372,550.150757 139.427856,552.043274 131.282761,551.015259 
	C127.779861,550.573120 121.291595,543.774841 121.249153,540.326111 
	C121.244446,539.944092 121.438484,539.312012 121.281822,539.215454 
	C116.575699,536.315979 118.206276,531.131165 117.260368,527.068298 
	C115.821991,520.890198 115.754738,514.400330 114.976181,508.058685 
	C114.419395,503.523529 113.532562,499.027863 113.011971,494.489471 
	C112.524361,490.238708 112.324768,485.954956 111.971931,481.339172 
	C115.007591,481.339172 117.872482,481.339172 121.424713,481.339172 
	C120.633896,483.057129 120.009064,484.414490 119.278961,486.000580 
	C124.115936,487.288910 124.812523,490.700317 125.238152,495.342682 
	C125.819817,501.687134 128.134155,507.863953 129.570465,514.143555 
	C130.078781,516.365967 130.040009,518.710938 130.512314,520.944641 
	C131.687286,526.501831 133.012558,532.027222 134.594025,538.951294 
	C137.003784,537.521118 139.235809,536.623779 140.926346,535.118408 
	C147.887344,528.920044 154.607330,522.450745 161.576553,516.261902 
	C164.591309,513.584778 172.758743,514.719360 175.358643,517.822449 
	C177.836258,520.779663 180.393951,523.672058 182.806442,526.681030 
	C185.163879,529.621460 188.492874,529.912231 190.932022,527.318970 
	C195.789780,522.154236 200.688080,517.027588 205.567291,511.882996 
	C206.202774,511.212921 207.293152,510.585327 207.380981,509.844238 
	C208.391464,501.317352 216.653412,499.750702 221.865234,495.579407 
	C223.191666,494.517822 229.745544,497.478790 231.658340,500.178253 
	C235.708557,505.893982 238.509033,512.556274 241.351028,519.036987 
	C242.477783,521.606323 241.976624,524.896057 244.895355,526.652405 
	C245.625641,527.091858 246.682632,528.046997 247.074448,527.830994 
	C252.663712,524.749634 257.775726,521.209045 262.642639,516.845398 
	C266.844025,513.078369 270.046997,505.168854 278.673096,508.535339 
	C280.087341,513.505310 280.656830,518.359985 275.398682,522.305359 
	C274.129395,523.257812 274.005890,525.737366 273.334930,527.570801 
	C268.702087,530.512268 263.896820,533.563232 258.995422,537.003174 
z"/>
<path fill="#FFFFFF" opacity="1.000000" stroke="none" 
	d="
M338.979828,258.248718 
	C338.901489,262.194855 338.901489,262.194855 331.272400,269.682983 
	C329.068756,268.660736 327.106812,267.364655 324.955597,266.829498 
	C319.768005,265.539062 320.618469,260.198273 318.246094,257.017487 
	C312.162842,248.861206 307.064331,239.964417 301.669830,231.302856 
	C298.669373,226.485214 296.077759,221.402802 292.922058,216.694290 
	C287.974426,209.312134 282.618469,202.204559 277.618134,194.856415 
	C275.787628,192.166473 274.478302,189.121933 272.929535,186.240097 
	C272.722748,185.855225 272.599091,185.351593 272.279968,185.112061 
	C265.810181,180.256073 260.831787,167.562347 263.175568,160.459564 
	C263.775269,158.642181 266.177368,156.514954 268.022400,156.218857 
	C271.012085,155.739044 274.976837,154.617096 276.838196,158.611649 
	C281.178009,167.925034 287.477295,175.985367 292.994629,184.550400 
	C297.258698,191.169876 301.021027,198.115036 305.345245,204.692627 
	C309.670319,211.271561 314.647614,217.425140 318.901459,224.046310 
	C322.079620,228.993088 324.481842,234.432449 327.395844,239.557938 
	C328.478058,241.461487 330.187347,243.001053 331.342072,244.872360 
	C333.970428,249.131744 336.432526,253.493744 338.979828,258.248718 
z"/>
<path fill="#FFFFFF" opacity="1.000000" stroke="none" 
	d="
M445.000000,263.994263 
	C445.208557,260.936829 445.418243,258.924194 447.476624,256.332764 
	C452.101379,250.510422 455.133240,243.406433 458.676727,236.751343 
	C459.773956,234.690659 460.430176,232.395187 461.288269,230.207199 
	C461.862396,230.327515 462.436554,230.447845 463.010681,230.568161 
	C462.683380,229.581375 462.356079,228.594589 462.028748,227.607788 
	C462.378937,227.781845 462.729126,227.955917 463.079315,228.129974 
	C464.385590,225.877029 465.653107,223.600449 467.008270,221.377335 
	C468.594879,218.774567 470.256897,216.217728 471.887726,213.641968 
	C476.269836,206.720825 480.593323,199.761597 485.054596,192.891891 
	C488.525513,187.547165 492.147186,182.299637 495.746216,177.039261 
	C497.085693,175.081482 499.198059,173.402435 499.835144,171.262070 
	C501.591034,165.363068 506.238098,165.015732 510.448334,166.266434 
	C513.324646,167.120911 516.261414,170.098450 517.605347,172.882614 
	C518.369934,174.466553 516.343079,177.804871 514.944885,179.942032 
	C511.934326,184.543610 508.287048,188.733124 505.343079,193.372253 
	C503.157349,196.816544 501.826477,200.794647 499.773193,204.336960 
	C499.157654,205.398895 497.392853,205.794678 497.423401,205.777390 
	C496.272949,208.056763 495.739990,209.275772 495.068878,210.413269 
	C492.600250,214.597595 490.156311,218.799210 487.571228,222.911438 
	C484.093750,228.443237 480.348877,233.811050 476.986938,239.410248 
	C473.483459,245.245255 470.414551,251.340485 466.937958,257.192627 
	C464.143372,261.896790 461.165161,266.508087 458.002625,270.972351 
	C455.602234,274.360779 452.081329,273.277802 448.913025,272.342987 
	C444.918365,271.164337 444.633484,267.907074 445.000000,263.994263 
z"/>
<path fill="#000000" opacity="1.000000" stroke="none" 
	d="
M653.818848,256.501465 
	C650.445618,261.029938 647.068054,265.084442 644.044434,269.387634 
	C638.785645,276.871918 633.653076,284.449371 628.643860,292.103119 
	C624.940613,297.761536 621.582764,303.644958 617.947083,309.349121 
	C615.384949,313.368958 612.664917,317.292236 609.884155,321.164337 
	C609.464722,321.748413 608.328857,321.817932 607.791931,322.023132 
	C604.801208,314.998016 606.016235,306.685516 599.929443,301.284790 
	C598.296448,299.835846 595.520752,299.441589 593.189087,299.074219 
	C590.482056,298.647736 589.030701,299.225983 587.627075,302.690521 
	C585.545898,307.827118 585.957153,311.723114 587.797180,316.684326 
	C590.007324,322.643829 590.635864,329.185028 592.009399,335.461182 
	C593.275146,341.244873 594.959961,346.962891 595.789185,352.805084 
	C596.210693,355.774811 595.185547,358.958527 594.750366,362.036438 
	C594.599976,363.100433 593.944153,364.169098 594.048279,365.181244 
	C595.126526,375.667694 589.948364,384.348999 585.271851,392.840271 
	C582.992188,396.979431 578.205444,399.881836 574.222229,402.907959 
	C566.614136,408.687927 557.373596,411.191956 548.339661,410.575134 
	C541.856506,410.132538 534.424072,410.153717 528.669434,404.641235 
	C526.206604,402.281921 521.351501,402.641174 518.044861,400.892609 
	C512.187073,397.794830 506.373932,394.434753 501.115997,390.430756 
	C495.902283,386.460449 490.820343,382.025940 486.722290,376.953430 
	C481.272705,370.208008 476.831696,362.647705 472.028015,355.541870 
	C480.686462,350.250397 488.191956,345.580078 495.782135,341.051636 
	C501.729675,337.503265 507.833557,334.216583 513.773438,330.655945 
	C519.894043,326.987000 525.885010,323.102631 531.960754,319.357941 
	C537.637146,315.859467 543.428589,312.541656 549.023865,308.919495 
	C553.961426,305.723083 558.642212,302.132416 563.536438,298.865875 
	C571.381775,293.629761 579.395569,288.642731 587.173828,283.310608 
	C592.676819,279.538208 597.471985,274.483276 603.362549,271.584717 
	C612.317688,267.178192 618.810059,259.541809 627.508850,254.893936 
	C632.216919,252.378342 636.258850,248.647995 640.789307,245.760620 
	C648.705688,240.715271 656.786621,235.928833 664.755066,230.963928 
	C666.966431,229.586090 669.024109,227.961578 671.152344,226.450211 
	C671.404907,226.779480 671.657532,227.108734 671.910095,227.437988 
	C669.519897,230.876068 667.129700,234.314133 664.738220,237.746887 
	C661.149292,243.874176 657.561584,250.006821 653.818848,256.501465 
z"/>
<path fill="#000000" opacity="1.000000" stroke="none" 
	d="
M626.937744,354.000000 
	C630.468445,354.000000 633.511475,354.000000 636.554565,354.000000 
	C636.603516,354.273804 636.652405,354.547577 636.701355,354.821381 
	C628.662781,358.273407 620.624207,361.725403 612.208984,365.339142 
	C612.208984,361.381653 612.208984,357.971680 612.208984,354.000000 
	C616.948914,354.000000 621.699524,354.000000 626.937744,354.000000 
z"/>
<path fill="#000000" opacity="1.000000" stroke="none" 
	d="
M258.719910,410.999512 
	C252.382843,411.666748 246.255417,413.603271 240.576614,412.704651 
	C231.885239,411.329376 222.162292,410.986206 215.707489,403.777557 
	C211.516144,399.096680 207.256729,394.144470 207.818893,386.679169 
	C208.319519,380.031219 207.429459,373.279236 207.175171,366.572327 
	C207.158920,366.143921 207.185394,365.466339 207.439499,365.311859 
	C212.374069,362.311951 210.168304,356.780579 211.949219,352.661072 
	C214.418961,346.948151 217.481873,341.302032 218.745285,335.301910 
	C220.617264,326.411652 227.483093,320.257294 230.135406,311.872498 
	C231.025818,309.057587 233.470261,306.643921 235.549271,304.360901 
	C236.049591,303.811493 238.174118,304.113556 239.124390,304.707642 
	C243.822403,307.644623 248.379318,310.807617 252.981598,313.897400 
	C258.489044,317.594849 264.053009,321.212250 269.477814,325.027344 
	C273.852905,328.104156 277.922913,331.627228 282.380035,334.571106 
	C286.053253,336.997162 290.174713,338.732697 293.958862,341.005127 
	C303.507477,346.739166 312.977875,352.603394 322.472046,358.410858 
	C321.050232,360.827209 319.716858,363.559509 317.963989,365.989136 
	C311.423584,375.054718 305.713715,384.770630 295.918945,391.119232 
	C290.654602,394.531403 286.465729,399.686188 281.059540,402.772186 
	C275.905884,405.714050 269.795532,406.973969 264.118164,409.007996 
	C262.434021,409.611420 260.791870,410.332001 258.719910,410.999512 
z"/>
<path fill="#000000" opacity="1.000000" stroke="none" 
	d="
M185.015778,290.726196 
	C184.335342,288.162903 183.722549,286.014374 182.991730,283.906738 
	C180.372604,276.353424 177.671738,268.828033 175.123108,261.251282 
	C174.808823,260.316864 175.225998,259.136383 175.285217,258.329010 
	C191.056442,270.060547 206.664322,281.670593 222.404846,293.379303 
	C211.200729,302.262756 209.341660,317.538452 199.505325,328.572662 
	C194.572083,315.822845 189.800674,303.491272 185.015778,290.726196 
z"/>
<path fill="#000000" opacity="1.000000" stroke="none" 
	d="
M187.755829,381.269775 
	C186.559448,380.645416 185.699097,380.208282 184.787323,380.019836 
	C179.249863,378.875275 173.696838,377.805603 168.164612,376.637146 
	C167.818527,376.564087 167.604462,375.865997 167.602676,375.863373 
	C174.758942,374.154175 182.036530,372.415985 189.938461,370.528656 
	C189.938461,373.709503 189.965683,377.389709 189.858917,381.066010 
	C189.853516,381.251862 188.691528,381.404053 187.755829,381.269775 
z"/>
</svg>